<?xml version="1.0" encoding="utf-8" standalone="no"?>
<!DOCTYPE svg PUBLIC "-//W3C//DTD SVG 1.1//EN"
  "http://www.w3.org/Graphics/SVG/1.1/DTD/svg11.dtd">
<svg xmlns:xlink="http://www.w3.org/1999/xlink" width="608.654375pt" height="376.003125pt" viewBox="0 0 608.654375 376.003125" xmlns="http://www.w3.org/2000/svg" version="1.1">
 <metadata>
  <rdf:RDF xmlns:dc="http://purl.org/dc/elements/1.1/" xmlns:cc="http://creativecommons.org/ns#" xmlns:rdf="http://www.w3.org/1999/02/22-rdf-syntax-ns#">
   <cc:Work>
    <dc:type rdf:resource="http://purl.org/dc/dcmitype/StillImage"/>
    <dc:date>2026-02-07T11:16:29.247100</dc:date>
    <dc:format>image/svg+xml</dc:format>
    <dc:creator>
     <cc:Agent>
      <dc:title>Matplotlib v3.10.8, https://matplotlib.org/</dc:title>
     </cc:Agent>
    </dc:creator>
   </cc:Work>
  </rdf:RDF>
 </metadata>
 <defs>
  <style type="text/css">*{stroke-linejoin: round; stroke-linecap: butt}</style>
 </defs>
 <g id="figure_1">
  <g id="patch_1">
   <path d="M 0 376.003125 
L 608.654375 376.003125 
L 608.654375 0 
L 0 0 
L 0 376.003125 
z
" style="fill: none"/>
  </g>
  <g id="axes_1">
   <g id="patch_2">
    <path d="M 47.054375 336.24 
L 605.054375 336.24 
L 605.054375 3.6 
L 47.054375 3.6 
L 47.054375 336.24 
z
" style="fill: none"/>
   </g>
   <g id="matplotlib.axis_1">
    <g id="xtick_1">
     <g id="line2d_1">
      <defs>
       <path id="m7a31a03bc4" d="M 0 0 
L 0 3.5 
" style="stroke: #3a4f43; stroke-width: 0.8"/>
      </defs>
      <g>
       <use xlink:href="#m7a31a03bc4" x="77.158878" y="336.24" style="fill: #3a4f43; stroke: #3a4f43; stroke-width: 0.8"/>
      </g>
     </g>
     <g id="text_1">
      <!-- 1920 -->
      <g style="fill: #3a4f43" transform="translate(61.888878 352.358125) scale(0.12 -0.12)">
       <defs>
        <path id="DejaVuSans-31" d="M 794 531 
L 1825 531 
L 1825 4091 
L 703 3866 
L 703 4441 
L 1819 4666 
L 2450 4666 
L 2450 531 
L 3481 531 
L 3481 0 
L 794 0 
L 794 531 
z
" transform="scale(0.015625)"/>
        <path id="DejaVuSans-39" d="M 703 97 
L 703 672 
Q 941 559 1184 500 
Q 1428 441 1663 441 
Q 2288 441 2617 861 
Q 2947 1281 2994 2138 
Q 2813 1869 2534 1725 
Q 2256 1581 1919 1581 
Q 1219 1581 811 2004 
Q 403 2428 403 3163 
Q 403 3881 828 4315 
Q 1253 4750 1959 4750 
Q 2769 4750 3195 4129 
Q 3622 3509 3622 2328 
Q 3622 1225 3098 567 
Q 2575 -91 1691 -91 
Q 1453 -91 1209 -44 
Q 966 3 703 97 
z
M 1959 2075 
Q 2384 2075 2632 2365 
Q 2881 2656 2881 3163 
Q 2881 3666 2632 3958 
Q 2384 4250 1959 4250 
Q 1534 4250 1286 3958 
Q 1038 3666 1038 3163 
Q 1038 2656 1286 2365 
Q 1534 2075 1959 2075 
z
" transform="scale(0.015625)"/>
        <path id="DejaVuSans-32" d="M 1228 531 
L 3431 531 
L 3431 0 
L 469 0 
L 469 531 
Q 828 903 1448 1529 
Q 2069 2156 2228 2338 
Q 2531 2678 2651 2914 
Q 2772 3150 2772 3378 
Q 2772 3750 2511 3984 
Q 2250 4219 1831 4219 
Q 1534 4219 1204 4116 
Q 875 4013 500 3803 
L 500 4441 
Q 881 4594 1212 4672 
Q 1544 4750 1819 4750 
Q 2544 4750 2975 4387 
Q 3406 4025 3406 3419 
Q 3406 3131 3298 2873 
Q 3191 2616 2906 2266 
Q 2828 2175 2409 1742 
Q 1991 1309 1228 531 
z
" transform="scale(0.015625)"/>
        <path id="DejaVuSans-30" d="M 2034 4250 
Q 1547 4250 1301 3770 
Q 1056 3291 1056 2328 
Q 1056 1369 1301 889 
Q 1547 409 2034 409 
Q 2525 409 2770 889 
Q 3016 1369 3016 2328 
Q 3016 3291 2770 3770 
Q 2525 4250 2034 4250 
z
M 2034 4750 
Q 2819 4750 3233 4129 
Q 3647 3509 3647 2328 
Q 3647 1150 3233 529 
Q 2819 -91 2034 -91 
Q 1250 -91 836 529 
Q 422 1150 422 2328 
Q 422 3509 836 4129 
Q 1250 4750 2034 4750 
z
" transform="scale(0.015625)"/>
       </defs>
       <use xlink:href="#DejaVuSans-31"/>
       <use xlink:href="#DejaVuSans-39" transform="translate(63.623047 0)"/>
       <use xlink:href="#DejaVuSans-32" transform="translate(127.246094 0)"/>
       <use xlink:href="#DejaVuSans-30" transform="translate(190.869141 0)"/>
      </g>
     </g>
    </g>
    <g id="xtick_2">
     <g id="line2d_2">
      <g>
       <use xlink:href="#m7a31a03bc4" x="171.97621" y="336.24" style="fill: #3a4f43; stroke: #3a4f43; stroke-width: 0.8"/>
      </g>
     </g>
     <g id="text_2">
      <!-- 1940 -->
      <g style="fill: #3a4f43" transform="translate(156.70621 352.358125) scale(0.12 -0.12)">
       <defs>
        <path id="DejaVuSans-34" d="M 2419 4116 
L 825 1625 
L 2419 1625 
L 2419 4116 
z
M 2253 4666 
L 3047 4666 
L 3047 1625 
L 3713 1625 
L 3713 1100 
L 3047 1100 
L 3047 0 
L 2419 0 
L 2419 1100 
L 313 1100 
L 313 1709 
L 2253 4666 
z
" transform="scale(0.015625)"/>
       </defs>
       <use xlink:href="#DejaVuSans-31"/>
       <use xlink:href="#DejaVuSans-39" transform="translate(63.623047 0)"/>
       <use xlink:href="#DejaVuSans-34" transform="translate(127.246094 0)"/>
       <use xlink:href="#DejaVuSans-30" transform="translate(190.869141 0)"/>
      </g>
     </g>
    </g>
    <g id="xtick_3">
     <g id="line2d_3">
      <g>
       <use xlink:href="#m7a31a03bc4" x="266.793542" y="336.24" style="fill: #3a4f43; stroke: #3a4f43; stroke-width: 0.8"/>
      </g>
     </g>
     <g id="text_3">
      <!-- 1960 -->
      <g style="fill: #3a4f43" transform="translate(251.523542 352.358125) scale(0.12 -0.12)">
       <defs>
        <path id="DejaVuSans-36" d="M 2113 2584 
Q 1688 2584 1439 2293 
Q 1191 2003 1191 1497 
Q 1191 994 1439 701 
Q 1688 409 2113 409 
Q 2538 409 2786 701 
Q 3034 994 3034 1497 
Q 3034 2003 2786 2293 
Q 2538 2584 2113 2584 
z
M 3366 4563 
L 3366 3988 
Q 3128 4100 2886 4159 
Q 2644 4219 2406 4219 
Q 1781 4219 1451 3797 
Q 1122 3375 1075 2522 
Q 1259 2794 1537 2939 
Q 1816 3084 2150 3084 
Q 2853 3084 3261 2657 
Q 3669 2231 3669 1497 
Q 3669 778 3244 343 
Q 2819 -91 2113 -91 
Q 1303 -91 875 529 
Q 447 1150 447 2328 
Q 447 3434 972 4092 
Q 1497 4750 2381 4750 
Q 2619 4750 2861 4703 
Q 3103 4656 3366 4563 
z
" transform="scale(0.015625)"/>
       </defs>
       <use xlink:href="#DejaVuSans-31"/>
       <use xlink:href="#DejaVuSans-39" transform="translate(63.623047 0)"/>
       <use xlink:href="#DejaVuSans-36" transform="translate(127.246094 0)"/>
       <use xlink:href="#DejaVuSans-30" transform="translate(190.869141 0)"/>
      </g>
     </g>
    </g>
    <g id="xtick_4">
     <g id="line2d_4">
      <g>
       <use xlink:href="#m7a31a03bc4" x="361.610875" y="336.24" style="fill: #3a4f43; stroke: #3a4f43; stroke-width: 0.8"/>
      </g>
     </g>
     <g id="text_4">
      <!-- 1980 -->
      <g style="fill: #3a4f43" transform="translate(346.340875 352.358125) scale(0.12 -0.12)">
       <defs>
        <path id="DejaVuSans-38" d="M 2034 2216 
Q 1584 2216 1326 1975 
Q 1069 1734 1069 1313 
Q 1069 891 1326 650 
Q 1584 409 2034 409 
Q 2484 409 2743 651 
Q 3003 894 3003 1313 
Q 3003 1734 2745 1975 
Q 2488 2216 2034 2216 
z
M 1403 2484 
Q 997 2584 770 2862 
Q 544 3141 544 3541 
Q 544 4100 942 4425 
Q 1341 4750 2034 4750 
Q 2731 4750 3128 4425 
Q 3525 4100 3525 3541 
Q 3525 3141 3298 2862 
Q 3072 2584 2669 2484 
Q 3125 2378 3379 2068 
Q 3634 1759 3634 1313 
Q 3634 634 3220 271 
Q 2806 -91 2034 -91 
Q 1263 -91 848 271 
Q 434 634 434 1313 
Q 434 1759 690 2068 
Q 947 2378 1403 2484 
z
M 1172 3481 
Q 1172 3119 1398 2916 
Q 1625 2713 2034 2713 
Q 2441 2713 2670 2916 
Q 2900 3119 2900 3481 
Q 2900 3844 2670 4047 
Q 2441 4250 2034 4250 
Q 1625 4250 1398 4047 
Q 1172 3844 1172 3481 
z
" transform="scale(0.015625)"/>
       </defs>
       <use xlink:href="#DejaVuSans-31"/>
       <use xlink:href="#DejaVuSans-39" transform="translate(63.623047 0)"/>
       <use xlink:href="#DejaVuSans-38" transform="translate(127.246094 0)"/>
       <use xlink:href="#DejaVuSans-30" transform="translate(190.869141 0)"/>
      </g>
     </g>
    </g>
    <g id="xtick_5">
     <g id="line2d_5">
      <g>
       <use xlink:href="#m7a31a03bc4" x="456.428207" y="336.24" style="fill: #3a4f43; stroke: #3a4f43; stroke-width: 0.8"/>
      </g>
     </g>
     <g id="text_5">
      <!-- 2000 -->
      <g style="fill: #3a4f43" transform="translate(441.158207 352.358125) scale(0.12 -0.12)">
       <use xlink:href="#DejaVuSans-32"/>
       <use xlink:href="#DejaVuSans-30" transform="translate(63.623047 0)"/>
       <use xlink:href="#DejaVuSans-30" transform="translate(127.246094 0)"/>
       <use xlink:href="#DejaVuSans-30" transform="translate(190.869141 0)"/>
      </g>
     </g>
    </g>
    <g id="xtick_6">
     <g id="line2d_6">
      <g>
       <use xlink:href="#m7a31a03bc4" x="551.245539" y="336.24" style="fill: #3a4f43; stroke: #3a4f43; stroke-width: 0.8"/>
      </g>
     </g>
     <g id="text_6">
      <!-- 2020 -->
      <g style="fill: #3a4f43" transform="translate(535.975539 352.358125) scale(0.12 -0.12)">
       <use xlink:href="#DejaVuSans-32"/>
       <use xlink:href="#DejaVuSans-30" transform="translate(63.623047 0)"/>
       <use xlink:href="#DejaVuSans-32" transform="translate(127.246094 0)"/>
       <use xlink:href="#DejaVuSans-30" transform="translate(190.869141 0)"/>
      </g>
     </g>
    </g>
    <g id="text_7">
     <!-- Anni -->
     <g style="fill: #3a4f43" transform="translate(310.44875 369.491562) scale(0.14 -0.14)">
      <defs>
       <path id="DejaVuSans-41" d="M 2188 4044 
L 1331 1722 
L 3047 1722 
L 2188 4044 
z
M 1831 4666 
L 2547 4666 
L 4325 0 
L 3669 0 
L 3244 1197 
L 1141 1197 
L 716 0 
L 50 0 
L 1831 4666 
z
" transform="scale(0.015625)"/>
       <path id="DejaVuSans-6e" d="M 3513 2113 
L 3513 0 
L 2938 0 
L 2938 2094 
Q 2938 2591 2744 2837 
Q 2550 3084 2163 3084 
Q 1697 3084 1428 2787 
Q 1159 2491 1159 1978 
L 1159 0 
L 581 0 
L 581 3500 
L 1159 3500 
L 1159 2956 
Q 1366 3272 1645 3428 
Q 1925 3584 2291 3584 
Q 2894 3584 3203 3211 
Q 3513 2838 3513 2113 
z
" transform="scale(0.015625)"/>
       <path id="DejaVuSans-69" d="M 603 3500 
L 1178 3500 
L 1178 0 
L 603 0 
L 603 3500 
z
M 603 4863 
L 1178 4863 
L 1178 4134 
L 603 4134 
L 603 4863 
z
" transform="scale(0.015625)"/>
      </defs>
      <use xlink:href="#DejaVuSans-41"/>
      <use xlink:href="#DejaVuSans-6e" transform="translate(68.408203 0)"/>
      <use xlink:href="#DejaVuSans-6e" transform="translate(131.787109 0)"/>
      <use xlink:href="#DejaVuSans-69" transform="translate(195.166016 0)"/>
     </g>
    </g>
   </g>
   <g id="matplotlib.axis_2">
    <g id="ytick_1">
     <g id="line2d_7">
      <defs>
       <path id="md7fdc86adb" d="M 0 0 
L -3.5 0 
" style="stroke: #3a4f43; stroke-width: 0.8"/>
      </defs>
      <g>
       <use xlink:href="#md7fdc86adb" x="47.054375" y="321.12" style="fill: #3a4f43; stroke: #3a4f43; stroke-width: 0.8"/>
      </g>
     </g>
     <g id="text_8">
      <!-- 0 -->
      <g style="fill: #3a4f43" transform="translate(32.419375 325.679062) scale(0.12 -0.12)">
       <use xlink:href="#DejaVuSans-30"/>
      </g>
     </g>
    </g>
    <g id="ytick_2">
     <g id="line2d_8">
      <g>
       <use xlink:href="#md7fdc86adb" x="47.054375" y="266.138182" style="fill: #3a4f43; stroke: #3a4f43; stroke-width: 0.8"/>
      </g>
     </g>
     <g id="text_9">
      <!-- 20 -->
      <g style="fill: #3a4f43" transform="translate(24.784375 270.697244) scale(0.12 -0.12)">
       <use xlink:href="#DejaVuSans-32"/>
       <use xlink:href="#DejaVuSans-30" transform="translate(63.623047 0)"/>
      </g>
     </g>
    </g>
    <g id="ytick_3">
     <g id="line2d_9">
      <g>
       <use xlink:href="#md7fdc86adb" x="47.054375" y="211.156364" style="fill: #3a4f43; stroke: #3a4f43; stroke-width: 0.8"/>
      </g>
     </g>
     <g id="text_10">
      <!-- 40 -->
      <g style="fill: #3a4f43" transform="translate(24.784375 215.715426) scale(0.12 -0.12)">
       <use xlink:href="#DejaVuSans-34"/>
       <use xlink:href="#DejaVuSans-30" transform="translate(63.623047 0)"/>
      </g>
     </g>
    </g>
    <g id="ytick_4">
     <g id="line2d_10">
      <g>
       <use xlink:href="#md7fdc86adb" x="47.054375" y="156.174545" style="fill: #3a4f43; stroke: #3a4f43; stroke-width: 0.8"/>
      </g>
     </g>
     <g id="text_11">
      <!-- 60 -->
      <g style="fill: #3a4f43" transform="translate(24.784375 160.733608) scale(0.12 -0.12)">
       <use xlink:href="#DejaVuSans-36"/>
       <use xlink:href="#DejaVuSans-30" transform="translate(63.623047 0)"/>
      </g>
     </g>
    </g>
    <g id="ytick_5">
     <g id="line2d_11">
      <g>
       <use xlink:href="#md7fdc86adb" x="47.054375" y="101.192727" style="fill: #3a4f43; stroke: #3a4f43; stroke-width: 0.8"/>
      </g>
     </g>
     <g id="text_12">
      <!-- 80 -->
      <g style="fill: #3a4f43" transform="translate(24.784375 105.75179) scale(0.12 -0.12)">
       <use xlink:href="#DejaVuSans-38"/>
       <use xlink:href="#DejaVuSans-30" transform="translate(63.623047 0)"/>
      </g>
     </g>
    </g>
    <g id="ytick_6">
     <g id="line2d_12">
      <g>
       <use xlink:href="#md7fdc86adb" x="47.054375" y="46.210909" style="fill: #3a4f43; stroke: #3a4f43; stroke-width: 0.8"/>
      </g>
     </g>
     <g id="text_13">
      <!-- 100 -->
      <g style="fill: #3a4f43" transform="translate(17.149375 50.769972) scale(0.12 -0.12)">
       <use xlink:href="#DejaVuSans-31"/>
       <use xlink:href="#DejaVuSans-30" transform="translate(63.623047 0)"/>
       <use xlink:href="#DejaVuSans-30" transform="translate(127.246094 0)"/>
      </g>
     </g>
    </g>
    <g id="text_14">
     <!-- ID Tema -->
     <g style="fill: #3a4f43" transform="translate(14.237813 198.100469) rotate(-90) scale(0.14 -0.14)">
      <defs>
       <path id="DejaVuSans-49" d="M 628 4666 
L 1259 4666 
L 1259 0 
L 628 0 
L 628 4666 
z
" transform="scale(0.015625)"/>
       <path id="DejaVuSans-44" d="M 1259 4147 
L 1259 519 
L 2022 519 
Q 2988 519 3436 956 
Q 3884 1394 3884 2338 
Q 3884 3275 3436 3711 
Q 2988 4147 2022 4147 
L 1259 4147 
z
M 628 4666 
L 1925 4666 
Q 3281 4666 3915 4102 
Q 4550 3538 4550 2338 
Q 4550 1131 3912 565 
Q 3275 0 1925 0 
L 628 0 
L 628 4666 
z
" transform="scale(0.015625)"/>
       <path id="DejaVuSans-20" transform="scale(0.015625)"/>
       <path id="DejaVuSans-54" d="M -19 4666 
L 3928 4666 
L 3928 4134 
L 2272 4134 
L 2272 0 
L 1638 0 
L 1638 4134 
L -19 4134 
L -19 4666 
z
" transform="scale(0.015625)"/>
       <path id="DejaVuSans-65" d="M 3597 1894 
L 3597 1613 
L 953 1613 
Q 991 1019 1311 708 
Q 1631 397 2203 397 
Q 2534 397 2845 478 
Q 3156 559 3463 722 
L 3463 178 
Q 3153 47 2828 -22 
Q 2503 -91 2169 -91 
Q 1331 -91 842 396 
Q 353 884 353 1716 
Q 353 2575 817 3079 
Q 1281 3584 2069 3584 
Q 2775 3584 3186 3129 
Q 3597 2675 3597 1894 
z
M 3022 2063 
Q 3016 2534 2758 2815 
Q 2500 3097 2075 3097 
Q 1594 3097 1305 2825 
Q 1016 2553 972 2059 
L 3022 2063 
z
" transform="scale(0.015625)"/>
       <path id="DejaVuSans-6d" d="M 3328 2828 
Q 3544 3216 3844 3400 
Q 4144 3584 4550 3584 
Q 5097 3584 5394 3201 
Q 5691 2819 5691 2113 
L 5691 0 
L 5113 0 
L 5113 2094 
Q 5113 2597 4934 2840 
Q 4756 3084 4391 3084 
Q 3944 3084 3684 2787 
Q 3425 2491 3425 1978 
L 3425 0 
L 2847 0 
L 2847 2094 
Q 2847 2600 2669 2842 
Q 2491 3084 2119 3084 
Q 1678 3084 1418 2786 
Q 1159 2488 1159 1978 
L 1159 0 
L 581 0 
L 581 3500 
L 1159 3500 
L 1159 2956 
Q 1356 3278 1631 3431 
Q 1906 3584 2284 3584 
Q 2666 3584 2933 3390 
Q 3200 3197 3328 2828 
z
" transform="scale(0.015625)"/>
       <path id="DejaVuSans-61" d="M 2194 1759 
Q 1497 1759 1228 1600 
Q 959 1441 959 1056 
Q 959 750 1161 570 
Q 1363 391 1709 391 
Q 2188 391 2477 730 
Q 2766 1069 2766 1631 
L 2766 1759 
L 2194 1759 
z
M 3341 1997 
L 3341 0 
L 2766 0 
L 2766 531 
Q 2569 213 2275 61 
Q 1981 -91 1556 -91 
Q 1019 -91 701 211 
Q 384 513 384 1019 
Q 384 1609 779 1909 
Q 1175 2209 1959 2209 
L 2766 2209 
L 2766 2266 
Q 2766 2663 2505 2880 
Q 2244 3097 1772 3097 
Q 1472 3097 1187 3025 
Q 903 2953 641 2809 
L 641 3341 
Q 956 3463 1253 3523 
Q 1550 3584 1831 3584 
Q 2591 3584 2966 3190 
Q 3341 2797 3341 1997 
z
" transform="scale(0.015625)"/>
      </defs>
      <use xlink:href="#DejaVuSans-49"/>
      <use xlink:href="#DejaVuSans-44" transform="translate(29.492188 0)"/>
      <use xlink:href="#DejaVuSans-20" transform="translate(106.494141 0)"/>
      <use xlink:href="#DejaVuSans-54" transform="translate(138.28125 0)"/>
      <use xlink:href="#DejaVuSans-65" transform="translate(182.365234 0)"/>
      <use xlink:href="#DejaVuSans-6d" transform="translate(243.888672 0)"/>
      <use xlink:href="#DejaVuSans-61" transform="translate(341.300781 0)"/>
     </g>
    </g>
   </g>
   <g id="line2d_13">
    <path d="M 271.534409 321.12 
L 318.943075 321.12 
L 323.683942 321.12 
L 328.424808 321.12 
L 342.647408 321.12 
L 347.388275 321.12 
L 352.129141 321.12 
L 361.610875 321.12 
L 366.351741 321.12 
L 375.833474 321.12 
L 380.574341 321.12 
L 394.796941 321.12 
L 404.278674 321.12 
L 413.760407 321.12 
L 418.501274 321.12 
L 423.242141 321.12 
L 427.983007 321.12 
L 432.723874 321.12 
L 437.46474 321.12 
L 442.205607 321.12 
L 446.946474 321.12 
L 451.68734 321.12 
L 456.428207 321.12 
L 461.169073 321.12 
L 465.90994 321.12 
L 470.650807 321.12 
L 475.391673 321.12 
L 480.13254 321.12 
L 489.614273 321.12 
L 494.35514 321.12 
L 499.096006 321.12 
L 503.836873 321.12 
L 508.577739 321.12 
L 513.318606 321.12 
L 518.059473 321.12 
L 522.800339 321.12 
L 527.541206 321.12 
L 532.282073 321.12 
L 537.022939 321.12 
L 541.763806 321.12 
L 546.504672 321.12 
L 551.245539 321.12 
L 555.986406 321.12 
L 560.727272 321.12 
L 565.468139 321.12 
L 570.209005 321.12 
L 574.949872 321.12 
" clip-path="url(#pb0291bee39)" style="fill: none; stroke: #ffa500; stroke-width: 1.5; stroke-linecap: square"/>
   </g>
   <g id="line2d_14">
    <path d="M 299.979609 318.370909 
L 337.906542 318.370909 
L 352.129141 318.370909 
L 361.610875 318.370909 
L 380.574341 318.370909 
L 385.315208 318.370909 
L 390.056074 318.370909 
L 404.278674 318.370909 
L 409.019541 318.370909 
L 413.760407 318.370909 
L 418.501274 318.370909 
L 423.242141 318.370909 
L 427.983007 318.370909 
L 437.46474 318.370909 
L 442.205607 318.370909 
L 446.946474 318.370909 
L 451.68734 318.370909 
L 456.428207 318.370909 
L 461.169073 318.370909 
L 470.650807 318.370909 
L 475.391673 318.370909 
L 480.13254 318.370909 
L 484.873406 318.370909 
L 489.614273 318.370909 
L 494.35514 318.370909 
L 499.096006 318.370909 
L 503.836873 318.370909 
L 508.577739 318.370909 
L 518.059473 318.370909 
L 522.800339 318.370909 
L 527.541206 318.370909 
L 532.282073 318.370909 
L 537.022939 318.370909 
L 546.504672 318.370909 
L 551.245539 318.370909 
L 555.986406 318.370909 
L 560.727272 318.370909 
L 565.468139 318.370909 
L 570.209005 318.370909 
L 574.949872 318.370909 
" clip-path="url(#pb0291bee39)" style="fill: none; stroke: #ffa500; stroke-width: 1.5; stroke-linecap: square"/>
   </g>
   <g id="line2d_15">
    <path d="M 205.162276 315.621818 
L 209.903143 315.621818 
L 214.64401 315.621818 
L 224.125743 315.621818 
L 238.348343 315.621818 
L 257.311809 315.621818 
L 295.238742 315.621818 
L 304.720475 315.621818 
L 309.461342 315.621818 
L 314.202208 315.621818 
L 328.424808 315.621818 
L 337.906542 315.621818 
L 342.647408 315.621818 
L 361.610875 315.621818 
L 366.351741 315.621818 
L 371.092608 315.621818 
L 375.833474 315.621818 
L 385.315208 315.621818 
L 390.056074 315.621818 
L 394.796941 315.621818 
L 409.019541 315.621818 
L 413.760407 315.621818 
L 418.501274 315.621818 
L 423.242141 315.621818 
L 427.983007 315.621818 
L 432.723874 315.621818 
L 437.46474 315.621818 
L 442.205607 315.621818 
L 461.169073 315.621818 
L 465.90994 315.621818 
L 470.650807 315.621818 
L 484.873406 315.621818 
L 489.614273 315.621818 
L 499.096006 315.621818 
L 503.836873 315.621818 
L 508.577739 315.621818 
L 518.059473 315.621818 
L 522.800339 315.621818 
L 527.541206 315.621818 
L 532.282073 315.621818 
L 541.763806 315.621818 
L 551.245539 315.621818 
L 555.986406 315.621818 
L 560.727272 315.621818 
L 565.468139 315.621818 
L 574.949872 315.621818 
" clip-path="url(#pb0291bee39)" style="fill: none; stroke: #ffa500; stroke-width: 1.5; stroke-linecap: square"/>
   </g>
   <g id="line2d_16">
    <path d="M 200.42141 312.872727 
L 243.089209 312.872727 
L 247.830076 312.872727 
L 252.570943 312.872727 
L 318.943075 312.872727 
L 323.683942 312.872727 
L 328.424808 312.872727 
L 333.165675 312.872727 
L 347.388275 312.872727 
L 352.129141 312.872727 
L 356.870008 312.872727 
L 366.351741 312.872727 
L 375.833474 312.872727 
L 385.315208 312.872727 
L 394.796941 312.872727 
L 399.537807 312.872727 
L 409.019541 312.872727 
L 413.760407 312.872727 
L 418.501274 312.872727 
L 437.46474 312.872727 
L 461.169073 312.872727 
L 465.90994 312.872727 
L 480.13254 312.872727 
L 484.873406 312.872727 
L 489.614273 312.872727 
L 494.35514 312.872727 
L 503.836873 312.872727 
L 518.059473 312.872727 
L 532.282073 312.872727 
L 541.763806 312.872727 
L 546.504672 312.872727 
L 551.245539 312.872727 
L 555.986406 312.872727 
L 560.727272 312.872727 
L 565.468139 312.872727 
L 570.209005 312.872727 
L 574.949872 312.872727 
" clip-path="url(#pb0291bee39)" style="fill: none; stroke: #ffa500; stroke-width: 1.5; stroke-linecap: square"/>
   </g>
   <g id="line2d_17">
    <path d="M 200.42141 310.123636 
L 266.793542 310.123636 
L 314.202208 310.123636 
L 333.165675 310.123636 
L 337.906542 310.123636 
L 342.647408 310.123636 
L 347.388275 310.123636 
L 356.870008 310.123636 
L 371.092608 310.123636 
L 394.796941 310.123636 
L 399.537807 310.123636 
L 404.278674 310.123636 
L 409.019541 310.123636 
L 413.760407 310.123636 
L 432.723874 310.123636 
L 437.46474 310.123636 
L 446.946474 310.123636 
L 456.428207 310.123636 
L 499.096006 310.123636 
L 508.577739 310.123636 
L 513.318606 310.123636 
L 518.059473 310.123636 
L 522.800339 310.123636 
L 532.282073 310.123636 
L 537.022939 310.123636 
L 541.763806 310.123636 
L 546.504672 310.123636 
L 551.245539 310.123636 
L 555.986406 310.123636 
L 560.727272 310.123636 
L 570.209005 310.123636 
L 574.949872 310.123636 
" clip-path="url(#pb0291bee39)" style="fill: none; stroke: #ffa500; stroke-width: 1.5; stroke-linecap: square"/>
   </g>
   <g id="line2d_18">
    <path d="M 413.760407 307.374545 
L 418.501274 307.374545 
L 423.242141 307.374545 
L 427.983007 307.374545 
L 432.723874 307.374545 
L 442.205607 307.374545 
L 446.946474 307.374545 
L 451.68734 307.374545 
L 456.428207 307.374545 
L 461.169073 307.374545 
L 465.90994 307.374545 
L 480.13254 307.374545 
L 489.614273 307.374545 
L 499.096006 307.374545 
L 503.836873 307.374545 
L 513.318606 307.374545 
L 518.059473 307.374545 
L 522.800339 307.374545 
L 527.541206 307.374545 
L 532.282073 307.374545 
L 537.022939 307.374545 
L 565.468139 307.374545 
L 574.949872 307.374545 
" clip-path="url(#pb0291bee39)" style="fill: none; stroke: #ffa500; stroke-width: 1.5; stroke-linecap: square"/>
   </g>
   <g id="line2d_19">
    <path d="M 252.570943 304.625455 
L 257.311809 304.625455 
L 271.534409 304.625455 
L 318.943075 304.625455 
L 371.092608 304.625455 
L 380.574341 304.625455 
L 385.315208 304.625455 
L 390.056074 304.625455 
L 404.278674 304.625455 
L 413.760407 304.625455 
L 437.46474 304.625455 
L 442.205607 304.625455 
L 446.946474 304.625455 
L 456.428207 304.625455 
L 461.169073 304.625455 
L 465.90994 304.625455 
L 470.650807 304.625455 
L 475.391673 304.625455 
L 489.614273 304.625455 
L 503.836873 304.625455 
L 513.318606 304.625455 
L 522.800339 304.625455 
L 527.541206 304.625455 
L 532.282073 304.625455 
L 555.986406 304.625455 
L 565.468139 304.625455 
" clip-path="url(#pb0291bee39)" style="fill: none; stroke: #ffa500; stroke-width: 1.5; stroke-linecap: square"/>
   </g>
   <g id="line2d_20">
    <path d="M 209.903143 301.876364 
L 214.64401 301.876364 
L 257.311809 301.876364 
L 281.016142 301.876364 
L 304.720475 301.876364 
L 309.461342 301.876364 
L 314.202208 301.876364 
L 337.906542 301.876364 
L 347.388275 301.876364 
L 366.351741 301.876364 
L 371.092608 301.876364 
L 375.833474 301.876364 
L 380.574341 301.876364 
L 385.315208 301.876364 
L 394.796941 301.876364 
L 399.537807 301.876364 
L 404.278674 301.876364 
L 409.019541 301.876364 
L 413.760407 301.876364 
L 418.501274 301.876364 
L 427.983007 301.876364 
L 432.723874 301.876364 
L 437.46474 301.876364 
L 446.946474 301.876364 
L 451.68734 301.876364 
L 475.391673 301.876364 
L 480.13254 301.876364 
L 494.35514 301.876364 
L 503.836873 301.876364 
L 555.986406 301.876364 
" clip-path="url(#pb0291bee39)" style="fill: none; stroke: #ffa500; stroke-width: 1.5; stroke-linecap: square"/>
   </g>
   <g id="line2d_21">
    <path d="M 295.238742 299.127273 
L 394.796941 299.127273 
L 404.278674 299.127273 
L 413.760407 299.127273 
L 418.501274 299.127273 
L 427.983007 299.127273 
L 437.46474 299.127273 
L 451.68734 299.127273 
L 475.391673 299.127273 
L 499.096006 299.127273 
L 508.577739 299.127273 
L 513.318606 299.127273 
L 522.800339 299.127273 
L 532.282073 299.127273 
L 537.022939 299.127273 
L 541.763806 299.127273 
L 546.504672 299.127273 
L 551.245539 299.127273 
L 555.986406 299.127273 
L 560.727272 299.127273 
L 565.468139 299.127273 
L 570.209005 299.127273 
L 574.949872 299.127273 
" clip-path="url(#pb0291bee39)" style="fill: none; stroke: #ffa500; stroke-width: 1.5; stroke-linecap: square"/>
   </g>
   <g id="line2d_22">
    <path d="M 409.019541 296.378182 
L 461.169073 296.378182 
L 470.650807 296.378182 
L 494.35514 296.378182 
L 503.836873 296.378182 
L 513.318606 296.378182 
L 522.800339 296.378182 
L 532.282073 296.378182 
L 537.022939 296.378182 
L 541.763806 296.378182 
L 551.245539 296.378182 
L 555.986406 296.378182 
L 560.727272 296.378182 
L 565.468139 296.378182 
L 570.209005 296.378182 
L 574.949872 296.378182 
" clip-path="url(#pb0291bee39)" style="fill: none; stroke: #ffa500; stroke-width: 1.5; stroke-linecap: square"/>
   </g>
   <g id="line2d_23">
    <path d="M 404.278674 293.629091 
L 413.760407 293.629091 
L 423.242141 293.629091 
L 427.983007 293.629091 
L 432.723874 293.629091 
L 437.46474 293.629091 
L 442.205607 293.629091 
L 451.68734 293.629091 
L 456.428207 293.629091 
L 461.169073 293.629091 
L 470.650807 293.629091 
L 475.391673 293.629091 
L 480.13254 293.629091 
L 484.873406 293.629091 
L 489.614273 293.629091 
L 494.35514 293.629091 
L 499.096006 293.629091 
L 503.836873 293.629091 
L 508.577739 293.629091 
L 522.800339 293.629091 
L 527.541206 293.629091 
L 537.022939 293.629091 
L 546.504672 293.629091 
L 570.209005 293.629091 
L 574.949872 293.629091 
" clip-path="url(#pb0291bee39)" style="fill: none; stroke: #ffa500; stroke-width: 1.5; stroke-linecap: square"/>
   </g>
   <g id="line2d_24">
    <path d="M 328.424808 290.88 
L 404.278674 290.88 
L 409.019541 290.88 
L 442.205607 290.88 
L 461.169073 290.88 
L 470.650807 290.88 
L 480.13254 290.88 
L 484.873406 290.88 
L 489.614273 290.88 
L 508.577739 290.88 
L 527.541206 290.88 
L 532.282073 290.88 
L 537.022939 290.88 
L 541.763806 290.88 
L 546.504672 290.88 
L 551.245539 290.88 
L 555.986406 290.88 
L 565.468139 290.88 
L 570.209005 290.88 
L 574.949872 290.88 
" clip-path="url(#pb0291bee39)" style="fill: none; stroke: #ffa500; stroke-width: 1.5; stroke-linecap: square"/>
   </g>
   <g id="line2d_25">
    <path d="M 314.202208 288.130909 
L 409.019541 288.130909 
L 413.760407 288.130909 
L 432.723874 288.130909 
L 442.205607 288.130909 
L 446.946474 288.130909 
L 475.391673 288.130909 
L 484.873406 288.130909 
L 494.35514 288.130909 
L 503.836873 288.130909 
L 513.318606 288.130909 
L 518.059473 288.130909 
L 527.541206 288.130909 
L 532.282073 288.130909 
L 537.022939 288.130909 
L 541.763806 288.130909 
L 546.504672 288.130909 
L 555.986406 288.130909 
L 560.727272 288.130909 
L 565.468139 288.130909 
L 570.209005 288.130909 
L 574.949872 288.130909 
" clip-path="url(#pb0291bee39)" style="fill: none; stroke: #ffa500; stroke-width: 1.5; stroke-linecap: square"/>
   </g>
   <g id="line2d_26">
    <path d="M 399.537807 285.381818 
L 418.501274 285.381818 
L 461.169073 285.381818 
L 465.90994 285.381818 
L 475.391673 285.381818 
L 484.873406 285.381818 
L 489.614273 285.381818 
L 494.35514 285.381818 
L 499.096006 285.381818 
L 503.836873 285.381818 
L 513.318606 285.381818 
L 522.800339 285.381818 
L 532.282073 285.381818 
L 537.022939 285.381818 
L 546.504672 285.381818 
L 555.986406 285.381818 
L 560.727272 285.381818 
L 565.468139 285.381818 
L 570.209005 285.381818 
L 574.949872 285.381818 
" clip-path="url(#pb0291bee39)" style="fill: none; stroke: #ffa500; stroke-width: 1.5; stroke-linecap: square"/>
   </g>
   <g id="line2d_27">
    <path d="M 228.866609 282.632727 
L 413.760407 282.632727 
L 423.242141 282.632727 
L 427.983007 282.632727 
L 437.46474 282.632727 
L 442.205607 282.632727 
L 465.90994 282.632727 
L 480.13254 282.632727 
L 489.614273 282.632727 
L 494.35514 282.632727 
L 503.836873 282.632727 
L 508.577739 282.632727 
L 513.318606 282.632727 
L 522.800339 282.632727 
L 546.504672 282.632727 
L 555.986406 282.632727 
L 560.727272 282.632727 
L 565.468139 282.632727 
L 570.209005 282.632727 
L 574.949872 282.632727 
" clip-path="url(#pb0291bee39)" style="fill: none; stroke: #ffa500; stroke-width: 1.5; stroke-linecap: square"/>
   </g>
   <g id="line2d_28">
    <path d="M 77.158878 279.883636 
L 81.899745 279.883636 
L 190.939677 279.883636 
L 205.162276 279.883636 
L 209.903143 279.883636 
L 228.866609 279.883636 
L 247.830076 279.883636 
L 257.311809 279.883636 
L 309.461342 279.883636 
L 314.202208 279.883636 
L 323.683942 279.883636 
L 361.610875 279.883636 
L 371.092608 279.883636 
L 380.574341 279.883636 
L 394.796941 279.883636 
L 404.278674 279.883636 
L 432.723874 279.883636 
L 456.428207 279.883636 
L 470.650807 279.883636 
L 555.986406 279.883636 
" clip-path="url(#pb0291bee39)" style="fill: none; stroke: #ffa500; stroke-width: 1.5; stroke-linecap: square"/>
   </g>
   <g id="line2d_29">
    <path d="M 352.129141 277.134545 
L 356.870008 277.134545 
L 413.760407 277.134545 
L 432.723874 277.134545 
L 442.205607 277.134545 
L 451.68734 277.134545 
L 465.90994 277.134545 
L 470.650807 277.134545 
L 494.35514 277.134545 
L 499.096006 277.134545 
L 508.577739 277.134545 
L 527.541206 277.134545 
L 532.282073 277.134545 
L 546.504672 277.134545 
L 560.727272 277.134545 
L 570.209005 277.134545 
L 574.949872 277.134545 
" clip-path="url(#pb0291bee39)" style="fill: none; stroke: #ffa500; stroke-width: 1.5; stroke-linecap: square"/>
   </g>
   <g id="line2d_30">
    <path d="M 352.129141 274.385455 
L 366.351741 274.385455 
L 375.833474 274.385455 
L 390.056074 274.385455 
L 399.537807 274.385455 
L 404.278674 274.385455 
L 413.760407 274.385455 
L 446.946474 274.385455 
L 465.90994 274.385455 
L 470.650807 274.385455 
L 480.13254 274.385455 
L 508.577739 274.385455 
L 513.318606 274.385455 
L 518.059473 274.385455 
L 527.541206 274.385455 
L 532.282073 274.385455 
L 541.763806 274.385455 
L 546.504672 274.385455 
L 570.209005 274.385455 
L 574.949872 274.385455 
" clip-path="url(#pb0291bee39)" style="fill: none; stroke: #ffa500; stroke-width: 1.5; stroke-linecap: square"/>
   </g>
   <g id="line2d_31">
    <path d="M 446.946474 271.636364 
L 456.428207 271.636364 
L 461.169073 271.636364 
L 470.650807 271.636364 
L 480.13254 271.636364 
L 484.873406 271.636364 
L 494.35514 271.636364 
L 499.096006 271.636364 
L 503.836873 271.636364 
L 508.577739 271.636364 
L 513.318606 271.636364 
L 518.059473 271.636364 
L 522.800339 271.636364 
L 532.282073 271.636364 
L 551.245539 271.636364 
L 555.986406 271.636364 
L 560.727272 271.636364 
" clip-path="url(#pb0291bee39)" style="fill: none; stroke: #ffa500; stroke-width: 1.5; stroke-linecap: square"/>
   </g>
   <g id="line2d_32">
    <path d="M 285.757009 268.887273 
L 295.238742 268.887273 
L 299.979609 268.887273 
L 390.056074 268.887273 
L 432.723874 268.887273 
L 446.946474 268.887273 
L 456.428207 268.887273 
L 461.169073 268.887273 
L 475.391673 268.887273 
L 484.873406 268.887273 
L 499.096006 268.887273 
L 518.059473 268.887273 
L 527.541206 268.887273 
L 532.282073 268.887273 
L 560.727272 268.887273 
L 565.468139 268.887273 
L 570.209005 268.887273 
L 574.949872 268.887273 
" clip-path="url(#pb0291bee39)" style="fill: none; stroke: #ffa500; stroke-width: 1.5; stroke-linecap: square"/>
   </g>
   <g id="line2d_33">
    <path d="M 399.537807 266.138182 
L 404.278674 266.138182 
L 413.760407 266.138182 
L 418.501274 266.138182 
L 427.983007 266.138182 
L 442.205607 266.138182 
L 446.946474 266.138182 
L 494.35514 266.138182 
L 513.318606 266.138182 
L 518.059473 266.138182 
L 537.022939 266.138182 
L 541.763806 266.138182 
L 551.245539 266.138182 
L 555.986406 266.138182 
L 560.727272 266.138182 
L 579.690739 266.138182 
" clip-path="url(#pb0291bee39)" style="fill: none; stroke: #ffa500; stroke-width: 1.5; stroke-linecap: square"/>
   </g>
   <g id="line2d_34">
    <path d="M 290.497875 263.389091 
L 333.165675 263.389091 
L 461.169073 263.389091 
L 465.90994 263.389091 
L 470.650807 263.389091 
L 480.13254 263.389091 
L 489.614273 263.389091 
L 494.35514 263.389091 
L 499.096006 263.389091 
L 503.836873 263.389091 
L 508.577739 263.389091 
L 513.318606 263.389091 
L 527.541206 263.389091 
L 532.282073 263.389091 
L 537.022939 263.389091 
L 546.504672 263.389091 
L 565.468139 263.389091 
" clip-path="url(#pb0291bee39)" style="fill: none; stroke: #ffa500; stroke-width: 1.5; stroke-linecap: square"/>
   </g>
   <g id="line2d_35">
    <path d="M 238.348343 260.64 
L 309.461342 260.64 
L 333.165675 260.64 
L 366.351741 260.64 
L 371.092608 260.64 
L 385.315208 260.64 
L 404.278674 260.64 
L 475.391673 260.64 
L 508.577739 260.64 
L 522.800339 260.64 
L 537.022939 260.64 
L 546.504672 260.64 
L 555.986406 260.64 
L 565.468139 260.64 
L 570.209005 260.64 
L 574.949872 260.64 
" clip-path="url(#pb0291bee39)" style="fill: none; stroke: #ffa500; stroke-width: 1.5; stroke-linecap: square"/>
   </g>
   <g id="line2d_36">
    <path d="M 299.979609 257.890909 
L 309.461342 257.890909 
L 323.683942 257.890909 
L 333.165675 257.890909 
L 361.610875 257.890909 
L 413.760407 257.890909 
L 423.242141 257.890909 
L 475.391673 257.890909 
L 494.35514 257.890909 
L 499.096006 257.890909 
L 513.318606 257.890909 
L 522.800339 257.890909 
L 532.282073 257.890909 
L 546.504672 257.890909 
L 555.986406 257.890909 
L 560.727272 257.890909 
L 574.949872 257.890909 
" clip-path="url(#pb0291bee39)" style="fill: none; stroke: #ffa500; stroke-width: 1.5; stroke-linecap: square"/>
   </g>
   <g id="line2d_37">
    <path d="M 380.574341 255.141818 
L 413.760407 255.141818 
L 427.983007 255.141818 
L 432.723874 255.141818 
L 437.46474 255.141818 
L 446.946474 255.141818 
L 451.68734 255.141818 
L 470.650807 255.141818 
L 480.13254 255.141818 
L 508.577739 255.141818 
L 513.318606 255.141818 
L 532.282073 255.141818 
L 541.763806 255.141818 
L 574.949872 255.141818 
" clip-path="url(#pb0291bee39)" style="fill: none; stroke: #ffa500; stroke-width: 1.5; stroke-linecap: square"/>
   </g>
   <g id="line2d_38">
    <path d="M 385.315208 252.392727 
L 399.537807 252.392727 
L 413.760407 252.392727 
L 418.501274 252.392727 
L 437.46474 252.392727 
L 442.205607 252.392727 
L 456.428207 252.392727 
L 461.169073 252.392727 
L 465.90994 252.392727 
L 470.650807 252.392727 
L 480.13254 252.392727 
L 484.873406 252.392727 
L 489.614273 252.392727 
L 499.096006 252.392727 
L 508.577739 252.392727 
L 574.949872 252.392727 
" clip-path="url(#pb0291bee39)" style="fill: none; stroke: #ffa500; stroke-width: 1.5; stroke-linecap: square"/>
   </g>
   <g id="line2d_39">
    <path d="M 385.315208 249.643636 
L 399.537807 249.643636 
L 404.278674 249.643636 
L 418.501274 249.643636 
L 423.242141 249.643636 
L 427.983007 249.643636 
L 432.723874 249.643636 
L 442.205607 249.643636 
L 451.68734 249.643636 
L 475.391673 249.643636 
L 532.282073 249.643636 
L 570.209005 249.643636 
" clip-path="url(#pb0291bee39)" style="fill: none; stroke: #ffa500; stroke-width: 1.5; stroke-linecap: square"/>
   </g>
   <g id="line2d_40">
    <path d="M 233.607476 246.894545 
L 366.351741 246.894545 
L 380.574341 246.894545 
L 385.315208 246.894545 
L 394.796941 246.894545 
L 409.019541 246.894545 
L 423.242141 246.894545 
L 432.723874 246.894545 
L 451.68734 246.894545 
L 456.428207 246.894545 
L 480.13254 246.894545 
L 499.096006 246.894545 
L 513.318606 246.894545 
L 527.541206 246.894545 
L 555.986406 246.894545 
L 570.209005 246.894545 
" clip-path="url(#pb0291bee39)" style="fill: none; stroke: #ffa500; stroke-width: 1.5; stroke-linecap: square"/>
   </g>
   <g id="line2d_41">
    <path d="M 205.162276 244.145455 
L 328.424808 244.145455 
L 337.906542 244.145455 
L 361.610875 244.145455 
L 371.092608 244.145455 
L 390.056074 244.145455 
L 399.537807 244.145455 
L 409.019541 244.145455 
L 413.760407 244.145455 
L 427.983007 244.145455 
L 456.428207 244.145455 
L 475.391673 244.145455 
L 480.13254 244.145455 
L 541.763806 244.145455 
" clip-path="url(#pb0291bee39)" style="fill: none; stroke: #ffa500; stroke-width: 1.5; stroke-linecap: square"/>
   </g>
   <g id="line2d_42">
    <path d="M 200.42141 241.396364 
L 205.162276 241.396364 
L 257.311809 241.396364 
L 276.275276 241.396364 
L 285.757009 241.396364 
L 290.497875 241.396364 
L 299.979609 241.396364 
L 314.202208 241.396364 
L 323.683942 241.396364 
L 333.165675 241.396364 
L 347.388275 241.396364 
L 371.092608 241.396364 
L 385.315208 241.396364 
L 399.537807 241.396364 
L 427.983007 241.396364 
L 451.68734 241.396364 
L 574.949872 241.396364 
" clip-path="url(#pb0291bee39)" style="fill: none; stroke: #ffa500; stroke-width: 1.5; stroke-linecap: square"/>
   </g>
   <g id="line2d_43">
    <path d="M 295.238742 238.647273 
L 385.315208 238.647273 
L 423.242141 238.647273 
L 432.723874 238.647273 
L 437.46474 238.647273 
L 446.946474 238.647273 
L 451.68734 238.647273 
L 456.428207 238.647273 
L 484.873406 238.647273 
L 499.096006 238.647273 
L 513.318606 238.647273 
L 518.059473 238.647273 
L 522.800339 238.647273 
L 574.949872 238.647273 
" clip-path="url(#pb0291bee39)" style="fill: none; stroke: #ffa500; stroke-width: 1.5; stroke-linecap: square"/>
   </g>
   <g id="line2d_44">
    <path d="M 190.939677 235.898182 
L 200.42141 235.898182 
L 266.793542 235.898182 
L 271.534409 235.898182 
L 299.979609 235.898182 
L 318.943075 235.898182 
L 356.870008 235.898182 
L 361.610875 235.898182 
L 375.833474 235.898182 
L 390.056074 235.898182 
L 399.537807 235.898182 
L 446.946474 235.898182 
L 451.68734 235.898182 
L 532.282073 235.898182 
L 546.504672 235.898182 
" clip-path="url(#pb0291bee39)" style="fill: none; stroke: #ffa500; stroke-width: 1.5; stroke-linecap: square"/>
   </g>
   <g id="line2d_45">
    <path d="M 271.534409 233.149091 
L 409.019541 233.149091 
L 432.723874 233.149091 
L 442.205607 233.149091 
L 446.946474 233.149091 
L 456.428207 233.149091 
L 461.169073 233.149091 
L 475.391673 233.149091 
L 503.836873 233.149091 
L 522.800339 233.149091 
L 527.541206 233.149091 
L 565.468139 233.149091 
L 574.949872 233.149091 
" clip-path="url(#pb0291bee39)" style="fill: none; stroke: #ffa500; stroke-width: 1.5; stroke-linecap: square"/>
   </g>
   <g id="line2d_46">
    <path d="M 290.497875 230.4 
L 318.943075 230.4 
L 323.683942 230.4 
L 328.424808 230.4 
L 337.906542 230.4 
L 352.129141 230.4 
L 356.870008 230.4 
L 361.610875 230.4 
L 404.278674 230.4 
L 456.428207 230.4 
L 470.650807 230.4 
L 489.614273 230.4 
L 499.096006 230.4 
" clip-path="url(#pb0291bee39)" style="fill: none; stroke: #ffa500; stroke-width: 1.5; stroke-linecap: square"/>
   </g>
   <g id="line2d_47">
    <path d="M 513.318606 227.650909 
L 518.059473 227.650909 
L 522.800339 227.650909 
L 537.022939 227.650909 
L 551.245539 227.650909 
L 555.986406 227.650909 
L 560.727272 227.650909 
L 565.468139 227.650909 
L 570.209005 227.650909 
L 574.949872 227.650909 
L 579.690739 227.650909 
" clip-path="url(#pb0291bee39)" style="fill: none; stroke: #ffa500; stroke-width: 1.5; stroke-linecap: square"/>
   </g>
   <g id="line2d_48">
    <path d="M 371.092608 224.901818 
L 404.278674 224.901818 
L 413.760407 224.901818 
L 456.428207 224.901818 
L 465.90994 224.901818 
L 494.35514 224.901818 
L 508.577739 224.901818 
L 546.504672 224.901818 
L 551.245539 224.901818 
L 555.986406 224.901818 
L 560.727272 224.901818 
L 565.468139 224.901818 
L 570.209005 224.901818 
L 574.949872 224.901818 
" clip-path="url(#pb0291bee39)" style="fill: none; stroke: #ffa500; stroke-width: 1.5; stroke-linecap: square"/>
   </g>
   <g id="line2d_49">
    <path d="M 328.424808 222.152727 
L 333.165675 222.152727 
L 342.647408 222.152727 
L 366.351741 222.152727 
L 394.796941 222.152727 
L 404.278674 222.152727 
L 409.019541 222.152727 
L 418.501274 222.152727 
L 470.650807 222.152727 
L 494.35514 222.152727 
L 499.096006 222.152727 
L 541.763806 222.152727 
L 546.504672 222.152727 
L 551.245539 222.152727 
L 565.468139 222.152727 
L 574.949872 222.152727 
" clip-path="url(#pb0291bee39)" style="fill: none; stroke: #ffa500; stroke-width: 1.5; stroke-linecap: square"/>
   </g>
   <g id="line2d_50">
    <path d="M 385.315208 219.403636 
L 390.056074 219.403636 
L 394.796941 219.403636 
L 404.278674 219.403636 
L 409.019541 219.403636 
L 413.760407 219.403636 
L 546.504672 219.403636 
L 551.245539 219.403636 
L 555.986406 219.403636 
L 565.468139 219.403636 
L 570.209005 219.403636 
L 574.949872 219.403636 
" clip-path="url(#pb0291bee39)" style="fill: none; stroke: #ffa500; stroke-width: 1.5; stroke-linecap: square"/>
   </g>
   <g id="line2d_51">
    <path d="M 271.534409 216.654545 
L 276.275276 216.654545 
L 281.016142 216.654545 
L 290.497875 216.654545 
L 314.202208 216.654545 
L 361.610875 216.654545 
L 380.574341 216.654545 
L 404.278674 216.654545 
L 409.019541 216.654545 
L 432.723874 216.654545 
L 451.68734 216.654545 
L 499.096006 216.654545 
L 574.949872 216.654545 
" clip-path="url(#pb0291bee39)" style="fill: none; stroke: #ffa500; stroke-width: 1.5; stroke-linecap: square"/>
   </g>
   <g id="line2d_52">
    <path d="M 285.757009 213.905455 
L 323.683942 213.905455 
L 356.870008 213.905455 
L 385.315208 213.905455 
L 390.056074 213.905455 
L 394.796941 213.905455 
L 399.537807 213.905455 
L 404.278674 213.905455 
L 432.723874 213.905455 
L 456.428207 213.905455 
L 480.13254 213.905455 
L 499.096006 213.905455 
L 527.541206 213.905455 
L 546.504672 213.905455 
L 560.727272 213.905455 
L 570.209005 213.905455 
" clip-path="url(#pb0291bee39)" style="fill: none; stroke: #ffa500; stroke-width: 1.5; stroke-linecap: square"/>
   </g>
   <g id="line2d_53">
    <path d="M 238.348343 211.156364 
L 252.570943 211.156364 
L 347.388275 211.156364 
L 361.610875 211.156364 
L 371.092608 211.156364 
L 390.056074 211.156364 
L 409.019541 211.156364 
L 432.723874 211.156364 
L 475.391673 211.156364 
L 484.873406 211.156364 
L 522.800339 211.156364 
L 537.022939 211.156364 
" clip-path="url(#pb0291bee39)" style="fill: none; stroke: #ffa500; stroke-width: 1.5; stroke-linecap: square"/>
   </g>
   <g id="line2d_54">
    <path d="M 299.979609 208.407273 
L 309.461342 208.407273 
L 323.683942 208.407273 
L 337.906542 208.407273 
L 347.388275 208.407273 
L 371.092608 208.407273 
L 375.833474 208.407273 
L 385.315208 208.407273 
L 390.056074 208.407273 
L 423.242141 208.407273 
L 465.90994 208.407273 
" clip-path="url(#pb0291bee39)" style="fill: none; stroke: #ffa500; stroke-width: 1.5; stroke-linecap: square"/>
   </g>
   <g id="line2d_55">
    <path d="M 205.162276 205.658182 
L 309.461342 205.658182 
L 333.165675 205.658182 
L 347.388275 205.658182 
L 361.610875 205.658182 
L 366.351741 205.658182 
L 385.315208 205.658182 
L 394.796941 205.658182 
L 399.537807 205.658182 
L 404.278674 205.658182 
L 432.723874 205.658182 
L 527.541206 205.658182 
L 560.727272 205.658182 
" clip-path="url(#pb0291bee39)" style="fill: none; stroke: #ffa500; stroke-width: 1.5; stroke-linecap: square"/>
   </g>
   <g id="line2d_56">
    <path d="M 366.351741 202.909091 
L 380.574341 202.909091 
L 432.723874 202.909091 
L 442.205607 202.909091 
L 446.946474 202.909091 
L 470.650807 202.909091 
L 489.614273 202.909091 
L 503.836873 202.909091 
L 518.059473 202.909091 
L 522.800339 202.909091 
L 546.504672 202.909091 
L 565.468139 202.909091 
L 574.949872 202.909091 
" clip-path="url(#pb0291bee39)" style="fill: none; stroke: #ffa500; stroke-width: 1.5; stroke-linecap: square"/>
   </g>
   <g id="line2d_57">
    <path d="M 318.943075 200.16 
L 427.983007 200.16 
L 437.46474 200.16 
L 451.68734 200.16 
L 456.428207 200.16 
L 470.650807 200.16 
L 484.873406 200.16 
L 503.836873 200.16 
L 508.577739 200.16 
L 551.245539 200.16 
L 570.209005 200.16 
L 574.949872 200.16 
" clip-path="url(#pb0291bee39)" style="fill: none; stroke: #ffa500; stroke-width: 1.5; stroke-linecap: square"/>
   </g>
   <g id="line2d_58">
    <path d="M 290.497875 197.410909 
L 314.202208 197.410909 
L 337.906542 197.410909 
L 342.647408 197.410909 
L 347.388275 197.410909 
L 352.129141 197.410909 
L 361.610875 197.410909 
L 399.537807 197.410909 
L 409.019541 197.410909 
L 427.983007 197.410909 
L 470.650807 197.410909 
L 489.614273 197.410909 
L 494.35514 197.410909 
" clip-path="url(#pb0291bee39)" style="fill: none; stroke: #ffa500; stroke-width: 1.5; stroke-linecap: square"/>
   </g>
   <g id="line2d_59">
    <path d="M 328.424808 194.661818 
L 333.165675 194.661818 
L 356.870008 194.661818 
L 361.610875 194.661818 
L 366.351741 194.661818 
L 380.574341 194.661818 
L 390.056074 194.661818 
L 442.205607 194.661818 
L 541.763806 194.661818 
L 546.504672 194.661818 
L 570.209005 194.661818 
" clip-path="url(#pb0291bee39)" style="fill: none; stroke: #ffa500; stroke-width: 1.5; stroke-linecap: square"/>
   </g>
   <g id="line2d_60">
    <path d="M 366.351741 191.912727 
L 371.092608 191.912727 
L 385.315208 191.912727 
L 394.796941 191.912727 
L 442.205607 191.912727 
L 446.946474 191.912727 
L 461.169073 191.912727 
L 465.90994 191.912727 
L 480.13254 191.912727 
L 489.614273 191.912727 
L 527.541206 191.912727 
L 546.504672 191.912727 
L 574.949872 191.912727 
L 579.690739 191.912727 
" clip-path="url(#pb0291bee39)" style="fill: none; stroke: #ffa500; stroke-width: 1.5; stroke-linecap: square"/>
   </g>
   <g id="line2d_61">
    <path d="M 200.42141 189.163636 
L 299.979609 189.163636 
L 323.683942 189.163636 
L 352.129141 189.163636 
L 375.833474 189.163636 
L 390.056074 189.163636 
L 423.242141 189.163636 
L 442.205607 189.163636 
L 465.90994 189.163636 
L 484.873406 189.163636 
L 489.614273 189.163636 
L 499.096006 189.163636 
L 551.245539 189.163636 
L 565.468139 189.163636 
L 570.209005 189.163636 
" clip-path="url(#pb0291bee39)" style="fill: none; stroke: #ffa500; stroke-width: 1.5; stroke-linecap: square"/>
   </g>
   <g id="line2d_62">
    <path d="M 247.830076 186.414545 
L 285.757009 186.414545 
L 295.238742 186.414545 
L 309.461342 186.414545 
L 314.202208 186.414545 
L 323.683942 186.414545 
L 337.906542 186.414545 
L 347.388275 186.414545 
L 356.870008 186.414545 
L 385.315208 186.414545 
L 394.796941 186.414545 
" clip-path="url(#pb0291bee39)" style="fill: none; stroke: #ffa500; stroke-width: 1.5; stroke-linecap: square"/>
   </g>
   <g id="line2d_63">
    <path d="M 437.46474 183.665455 
L 446.946474 183.665455 
L 456.428207 183.665455 
L 465.90994 183.665455 
L 470.650807 183.665455 
L 475.391673 183.665455 
L 489.614273 183.665455 
L 527.541206 183.665455 
L 537.022939 183.665455 
L 546.504672 183.665455 
L 560.727272 183.665455 
L 574.949872 183.665455 
" clip-path="url(#pb0291bee39)" style="fill: none; stroke: #ffa500; stroke-width: 1.5; stroke-linecap: square"/>
   </g>
   <g id="line2d_64">
    <path d="M 186.19881 180.916364 
L 195.680543 180.916364 
L 200.42141 180.916364 
L 205.162276 180.916364 
L 209.903143 180.916364 
L 214.64401 180.916364 
L 337.906542 180.916364 
L 380.574341 180.916364 
L 489.614273 180.916364 
" clip-path="url(#pb0291bee39)" style="fill: none; stroke: #ffa500; stroke-width: 1.5; stroke-linecap: square"/>
   </g>
   <g id="line2d_65">
    <path d="M 309.461342 178.167273 
L 318.943075 178.167273 
L 413.760407 178.167273 
L 446.946474 178.167273 
L 456.428207 178.167273 
L 461.169073 178.167273 
L 465.90994 178.167273 
L 480.13254 178.167273 
L 494.35514 178.167273 
L 522.800339 178.167273 
L 555.986406 178.167273 
" clip-path="url(#pb0291bee39)" style="fill: none; stroke: #ffa500; stroke-width: 1.5; stroke-linecap: square"/>
   </g>
   <g id="line2d_66">
    <path d="M 200.42141 175.418182 
L 214.64401 175.418182 
L 285.757009 175.418182 
L 290.497875 175.418182 
L 309.461342 175.418182 
L 314.202208 175.418182 
L 333.165675 175.418182 
L 337.906542 175.418182 
L 390.056074 175.418182 
L 404.278674 175.418182 
L 446.946474 175.418182 
L 513.318606 175.418182 
" clip-path="url(#pb0291bee39)" style="fill: none; stroke: #ffa500; stroke-width: 1.5; stroke-linecap: square"/>
   </g>
   <g id="line2d_67">
    <path d="M 356.870008 172.669091 
L 432.723874 172.669091 
L 503.836873 172.669091 
L 508.577739 172.669091 
L 518.059473 172.669091 
L 522.800339 172.669091 
L 532.282073 172.669091 
L 537.022939 172.669091 
L 546.504672 172.669091 
L 570.209005 172.669091 
" clip-path="url(#pb0291bee39)" style="fill: none; stroke: #ffa500; stroke-width: 1.5; stroke-linecap: square"/>
   </g>
   <g id="line2d_68">
    <path d="M 484.873406 169.92 
L 499.096006 169.92 
L 503.836873 169.92 
L 518.059473 169.92 
L 537.022939 169.92 
L 551.245539 169.92 
L 560.727272 169.92 
L 565.468139 169.92 
L 574.949872 169.92 
" clip-path="url(#pb0291bee39)" style="fill: none; stroke: #ffa500; stroke-width: 1.5; stroke-linecap: square"/>
   </g>
   <g id="line2d_69">
    <path d="M 304.720475 167.170909 
L 409.019541 167.170909 
L 432.723874 167.170909 
L 446.946474 167.170909 
L 461.169073 167.170909 
L 465.90994 167.170909 
L 470.650807 167.170909 
L 475.391673 167.170909 
L 484.873406 167.170909 
L 494.35514 167.170909 
L 560.727272 167.170909 
" clip-path="url(#pb0291bee39)" style="fill: none; stroke: #ffa500; stroke-width: 1.5; stroke-linecap: square"/>
   </g>
   <g id="line2d_70">
    <path d="M 243.089209 164.421818 
L 437.46474 164.421818 
L 456.428207 164.421818 
L 494.35514 164.421818 
L 499.096006 164.421818 
L 503.836873 164.421818 
L 522.800339 164.421818 
L 532.282073 164.421818 
L 551.245539 164.421818 
L 574.949872 164.421818 
" clip-path="url(#pb0291bee39)" style="fill: none; stroke: #ffa500; stroke-width: 1.5; stroke-linecap: square"/>
   </g>
   <g id="line2d_71">
    <path d="M 427.983007 161.672727 
L 451.68734 161.672727 
L 461.169073 161.672727 
L 489.614273 161.672727 
L 494.35514 161.672727 
L 503.836873 161.672727 
L 518.059473 161.672727 
L 541.763806 161.672727 
L 551.245539 161.672727 
L 555.986406 161.672727 
L 560.727272 161.672727 
" clip-path="url(#pb0291bee39)" style="fill: none; stroke: #ffa500; stroke-width: 1.5; stroke-linecap: square"/>
   </g>
   <g id="line2d_72">
    <path d="M 205.162276 158.923636 
L 238.348343 158.923636 
L 247.830076 158.923636 
L 276.275276 158.923636 
L 295.238742 158.923636 
L 299.979609 158.923636 
L 328.424808 158.923636 
L 352.129141 158.923636 
L 380.574341 158.923636 
L 446.946474 158.923636 
L 456.428207 158.923636 
L 489.614273 158.923636 
" clip-path="url(#pb0291bee39)" style="fill: none; stroke: #ffa500; stroke-width: 1.5; stroke-linecap: square"/>
   </g>
   <g id="line2d_73">
    <path d="M 295.238742 156.174545 
L 437.46474 156.174545 
L 456.428207 156.174545 
L 461.169073 156.174545 
L 465.90994 156.174545 
L 489.614273 156.174545 
L 527.541206 156.174545 
L 555.986406 156.174545 
L 565.468139 156.174545 
" clip-path="url(#pb0291bee39)" style="fill: none; stroke: #ffa500; stroke-width: 1.5; stroke-linecap: square"/>
   </g>
   <g id="line2d_74">
    <path d="M 309.461342 153.425455 
L 328.424808 153.425455 
L 342.647408 153.425455 
L 347.388275 153.425455 
L 352.129141 153.425455 
L 390.056074 153.425455 
L 409.019541 153.425455 
L 522.800339 153.425455 
L 532.282073 153.425455 
L 537.022939 153.425455 
" clip-path="url(#pb0291bee39)" style="fill: none; stroke: #ffa500; stroke-width: 1.5; stroke-linecap: square"/>
   </g>
   <g id="line2d_75">
    <path d="M 375.833474 150.676364 
L 418.501274 150.676364 
L 560.727272 150.676364 
L 565.468139 150.676364 
L 570.209005 150.676364 
" clip-path="url(#pb0291bee39)" style="fill: none; stroke: #ffa500; stroke-width: 1.5; stroke-linecap: square"/>
   </g>
   <g id="line2d_76">
    <path d="M 456.428207 147.927273 
L 489.614273 147.927273 
L 499.096006 147.927273 
L 513.318606 147.927273 
L 518.059473 147.927273 
" clip-path="url(#pb0291bee39)" style="fill: none; stroke: #ffa500; stroke-width: 1.5; stroke-linecap: square"/>
   </g>
   <g id="line2d_77">
    <path d="M 318.943075 145.178182 
L 361.610875 145.178182 
L 394.796941 145.178182 
L 399.537807 145.178182 
L 409.019541 145.178182 
L 418.501274 145.178182 
L 427.983007 145.178182 
L 437.46474 145.178182 
L 470.650807 145.178182 
L 508.577739 145.178182 
L 518.059473 145.178182 
" clip-path="url(#pb0291bee39)" style="fill: none; stroke: #ffa500; stroke-width: 1.5; stroke-linecap: square"/>
   </g>
   <g id="line2d_78">
    <path d="M 299.979609 142.429091 
L 318.943075 142.429091 
L 333.165675 142.429091 
L 337.906542 142.429091 
L 366.351741 142.429091 
L 385.315208 142.429091 
L 494.35514 142.429091 
L 527.541206 142.429091 
L 560.727272 142.429091 
L 565.468139 142.429091 
L 570.209005 142.429091 
" clip-path="url(#pb0291bee39)" style="fill: none; stroke: #ffa500; stroke-width: 1.5; stroke-linecap: square"/>
   </g>
   <g id="line2d_79">
    <path d="M 527.541206 139.68 
L 537.022939 139.68 
L 541.763806 139.68 
L 546.504672 139.68 
L 551.245539 139.68 
L 555.986406 139.68 
L 560.727272 139.68 
L 570.209005 139.68 
" clip-path="url(#pb0291bee39)" style="fill: none; stroke: #ffa500; stroke-width: 1.5; stroke-linecap: square"/>
   </g>
   <g id="line2d_80">
    <path d="M 418.501274 136.930909 
L 442.205607 136.930909 
L 456.428207 136.930909 
L 470.650807 136.930909 
L 480.13254 136.930909 
L 494.35514 136.930909 
L 518.059473 136.930909 
L 565.468139 136.930909 
L 574.949872 136.930909 
" clip-path="url(#pb0291bee39)" style="fill: none; stroke: #ffa500; stroke-width: 1.5; stroke-linecap: square"/>
   </g>
   <g id="line2d_81">
    <path d="M 356.870008 134.181818 
L 413.760407 134.181818 
L 446.946474 134.181818 
L 451.68734 134.181818 
L 494.35514 134.181818 
L 508.577739 134.181818 
L 513.318606 134.181818 
L 555.986406 134.181818 
L 570.209005 134.181818 
" clip-path="url(#pb0291bee39)" style="fill: none; stroke: #ffa500; stroke-width: 1.5; stroke-linecap: square"/>
   </g>
   <g id="line2d_82">
    <path d="M 437.46474 131.432727 
L 442.205607 131.432727 
L 456.428207 131.432727 
L 484.873406 131.432727 
L 489.614273 131.432727 
L 527.541206 131.432727 
L 546.504672 131.432727 
L 555.986406 131.432727 
" clip-path="url(#pb0291bee39)" style="fill: none; stroke: #ffa500; stroke-width: 1.5; stroke-linecap: square"/>
   </g>
   <g id="line2d_83">
    <path d="M 314.202208 128.683636 
L 323.683942 128.683636 
L 333.165675 128.683636 
L 375.833474 128.683636 
L 385.315208 128.683636 
L 409.019541 128.683636 
L 470.650807 128.683636 
L 537.022939 128.683636 
" clip-path="url(#pb0291bee39)" style="fill: none; stroke: #ffa500; stroke-width: 1.5; stroke-linecap: square"/>
   </g>
   <g id="line2d_84">
    <path d="M 72.418011 125.934545 
L 176.717077 125.934545 
L 190.939677 125.934545 
L 209.903143 125.934545 
L 238.348343 125.934545 
L 314.202208 125.934545 
L 337.906542 125.934545 
L 394.796941 125.934545 
L 546.504672 125.934545 
" clip-path="url(#pb0291bee39)" style="fill: none; stroke: #ffa500; stroke-width: 1.5; stroke-linecap: square"/>
   </g>
   <g id="line2d_85">
    <path d="M 371.092608 123.185455 
L 375.833474 123.185455 
L 427.983007 123.185455 
L 451.68734 123.185455 
L 518.059473 123.185455 
L 546.504672 123.185455 
L 555.986406 123.185455 
L 565.468139 123.185455 
" clip-path="url(#pb0291bee39)" style="fill: none; stroke: #ffa500; stroke-width: 1.5; stroke-linecap: square"/>
   </g>
   <g id="line2d_86">
    <path d="M 356.870008 120.436364 
L 427.983007 120.436364 
L 546.504672 120.436364 
L 555.986406 120.436364 
L 560.727272 120.436364 
L 565.468139 120.436364 
L 574.949872 120.436364 
" clip-path="url(#pb0291bee39)" style="fill: none; stroke: #ffa500; stroke-width: 1.5; stroke-linecap: square"/>
   </g>
   <g id="line2d_87">
    <path d="M 423.242141 117.687273 
L 465.90994 117.687273 
L 484.873406 117.687273 
L 494.35514 117.687273 
L 522.800339 117.687273 
L 527.541206 117.687273 
L 555.986406 117.687273 
L 570.209005 117.687273 
L 574.949872 117.687273 
" clip-path="url(#pb0291bee39)" style="fill: none; stroke: #ffa500; stroke-width: 1.5; stroke-linecap: square"/>
   </g>
   <g id="line2d_88">
    <path d="M 385.315208 114.938182 
L 413.760407 114.938182 
L 432.723874 114.938182 
L 489.614273 114.938182 
L 518.059473 114.938182 
L 527.541206 114.938182 
L 565.468139 114.938182 
L 574.949872 114.938182 
" clip-path="url(#pb0291bee39)" style="fill: none; stroke: #ffa500; stroke-width: 1.5; stroke-linecap: square"/>
   </g>
   <g id="line2d_89">
    <path d="M 257.311809 112.189091 
L 285.757009 112.189091 
L 290.497875 112.189091 
L 295.238742 112.189091 
L 309.461342 112.189091 
L 328.424808 112.189091 
L 356.870008 112.189091 
L 380.574341 112.189091 
" clip-path="url(#pb0291bee39)" style="fill: none; stroke: #ffa500; stroke-width: 1.5; stroke-linecap: square"/>
   </g>
   <g id="line2d_90">
    <path d="M 404.278674 109.44 
L 409.019541 109.44 
L 413.760407 109.44 
L 427.983007 109.44 
L 437.46474 109.44 
L 446.946474 109.44 
L 537.022939 109.44 
L 560.727272 109.44 
" clip-path="url(#pb0291bee39)" style="fill: none; stroke: #ffa500; stroke-width: 1.5; stroke-linecap: square"/>
   </g>
   <g id="line2d_91">
    <path d="M 537.022939 106.690909 
L 546.504672 106.690909 
L 555.986406 106.690909 
L 560.727272 106.690909 
L 565.468139 106.690909 
L 574.949872 106.690909 
" clip-path="url(#pb0291bee39)" style="fill: none; stroke: #ffa500; stroke-width: 1.5; stroke-linecap: square"/>
   </g>
   <g id="line2d_92">
    <path d="M 371.092608 103.941818 
L 375.833474 103.941818 
L 404.278674 103.941818 
L 413.760407 103.941818 
L 451.68734 103.941818 
L 465.90994 103.941818 
L 518.059473 103.941818 
" clip-path="url(#pb0291bee39)" style="fill: none; stroke: #ffa500; stroke-width: 1.5; stroke-linecap: square"/>
   </g>
   <g id="line2d_93">
    <path d="M 394.796941 101.192727 
L 399.537807 101.192727 
L 423.242141 101.192727 
L 432.723874 101.192727 
L 451.68734 101.192727 
L 461.169073 101.192727 
L 489.614273 101.192727 
L 570.209005 101.192727 
" clip-path="url(#pb0291bee39)" style="fill: none; stroke: #ffa500; stroke-width: 1.5; stroke-linecap: square"/>
   </g>
   <g id="line2d_94">
    <path d="M 247.830076 98.443636 
L 257.311809 98.443636 
L 262.052676 98.443636 
L 309.461342 98.443636 
L 380.574341 98.443636 
L 446.946474 98.443636 
L 465.90994 98.443636 
L 527.541206 98.443636 
" clip-path="url(#pb0291bee39)" style="fill: none; stroke: #ffa500; stroke-width: 1.5; stroke-linecap: square"/>
   </g>
   <g id="line2d_95">
    <path d="M 205.162276 95.694545 
L 238.348343 95.694545 
L 247.830076 95.694545 
L 285.757009 95.694545 
L 295.238742 95.694545 
L 380.574341 95.694545 
L 390.056074 95.694545 
L 399.537807 95.694545 
" clip-path="url(#pb0291bee39)" style="fill: none; stroke: #ffa500; stroke-width: 1.5; stroke-linecap: square"/>
   </g>
   <g id="line2d_96">
    <path d="M 371.092608 92.945455 
L 385.315208 92.945455 
L 404.278674 92.945455 
L 423.242141 92.945455 
L 427.983007 92.945455 
L 432.723874 92.945455 
" clip-path="url(#pb0291bee39)" style="fill: none; stroke: #ffa500; stroke-width: 1.5; stroke-linecap: square"/>
   </g>
   <g id="line2d_97">
    <path d="M 390.056074 90.196364 
L 418.501274 90.196364 
L 437.46474 90.196364 
L 442.205607 90.196364 
L 475.391673 90.196364 
" clip-path="url(#pb0291bee39)" style="fill: none; stroke: #ffa500; stroke-width: 1.5; stroke-linecap: square"/>
   </g>
   <g id="line2d_98">
    <path d="M 318.943075 87.447273 
L 385.315208 87.447273 
L 427.983007 87.447273 
L 456.428207 87.447273 
L 499.096006 87.447273 
L 503.836873 87.447273 
L 513.318606 87.447273 
L 574.949872 87.447273 
" clip-path="url(#pb0291bee39)" style="fill: none; stroke: #ffa500; stroke-width: 1.5; stroke-linecap: square"/>
   </g>
   <g id="line2d_99">
    <path d="M 356.870008 84.698182 
L 404.278674 84.698182 
L 413.760407 84.698182 
L 489.614273 84.698182 
L 522.800339 84.698182 
L 541.763806 84.698182 
L 546.504672 84.698182 
" clip-path="url(#pb0291bee39)" style="fill: none; stroke: #ffa500; stroke-width: 1.5; stroke-linecap: square"/>
   </g>
   <g id="line2d_100">
    <path d="M 451.68734 81.949091 
L 456.428207 81.949091 
L 461.169073 81.949091 
L 465.90994 81.949091 
L 489.614273 81.949091 
L 494.35514 81.949091 
L 508.577739 81.949091 
" clip-path="url(#pb0291bee39)" style="fill: none; stroke: #ffa500; stroke-width: 1.5; stroke-linecap: square"/>
   </g>
   <g id="line2d_101">
    <path d="M 390.056074 79.2 
L 423.242141 79.2 
L 451.68734 79.2 
L 508.577739 79.2 
L 518.059473 79.2 
L 527.541206 79.2 
L 532.282073 79.2 
L 570.209005 79.2 
" clip-path="url(#pb0291bee39)" style="fill: none; stroke: #ffa500; stroke-width: 1.5; stroke-linecap: square"/>
   </g>
   <g id="line2d_102">
    <path d="M 290.497875 76.450909 
L 309.461342 76.450909 
L 375.833474 76.450909 
L 423.242141 76.450909 
L 437.46474 76.450909 
L 446.946474 76.450909 
L 451.68734 76.450909 
L 546.504672 76.450909 
" clip-path="url(#pb0291bee39)" style="fill: none; stroke: #ffa500; stroke-width: 1.5; stroke-linecap: square"/>
   </g>
   <g id="line2d_103">
    <path d="M 356.870008 73.701818 
L 446.946474 73.701818 
L 456.428207 73.701818 
L 461.169073 73.701818 
L 465.90994 73.701818 
L 541.763806 73.701818 
L 555.986406 73.701818 
" clip-path="url(#pb0291bee39)" style="fill: none; stroke: #ffa500; stroke-width: 1.5; stroke-linecap: square"/>
   </g>
   <g id="line2d_104">
    <path d="M 314.202208 70.952727 
L 328.424808 70.952727 
L 333.165675 70.952727 
L 385.315208 70.952727 
L 480.13254 70.952727 
L 518.059473 70.952727 
L 555.986406 70.952727 
L 560.727272 70.952727 
" clip-path="url(#pb0291bee39)" style="fill: none; stroke: #ffa500; stroke-width: 1.5; stroke-linecap: square"/>
   </g>
   <g id="line2d_105">
    <path d="M 451.68734 68.203636 
L 489.614273 68.203636 
L 494.35514 68.203636 
L 499.096006 68.203636 
L 518.059473 68.203636 
L 541.763806 68.203636 
L 546.504672 68.203636 
" clip-path="url(#pb0291bee39)" style="fill: none; stroke: #ffa500; stroke-width: 1.5; stroke-linecap: square"/>
   </g>
   <g id="line2d_106">
    <path d="M 413.760407 65.454545 
L 423.242141 65.454545 
L 442.205607 65.454545 
L 475.391673 65.454545 
L 574.949872 65.454545 
" clip-path="url(#pb0291bee39)" style="fill: none; stroke: #ffa500; stroke-width: 1.5; stroke-linecap: square"/>
   </g>
   <g id="line2d_107">
    <path d="M 176.717077 62.705455 
L 195.680543 62.705455 
L 200.42141 62.705455 
L 205.162276 62.705455 
L 323.683942 62.705455 
" clip-path="url(#pb0291bee39)" style="fill: none; stroke: #ffa500; stroke-width: 1.5; stroke-linecap: square"/>
   </g>
   <g id="line2d_108">
    <path d="M 257.311809 59.956364 
L 295.238742 59.956364 
L 304.720475 59.956364 
L 385.315208 59.956364 
L 427.983007 59.956364 
" clip-path="url(#pb0291bee39)" style="fill: none; stroke: #ffa500; stroke-width: 1.5; stroke-linecap: square"/>
   </g>
   <g id="line2d_109">
    <path d="M 551.245539 57.207273 
L 570.209005 57.207273 
L 574.949872 57.207273 
" clip-path="url(#pb0291bee39)" style="fill: none; stroke: #ffa500; stroke-width: 1.5; stroke-linecap: square"/>
   </g>
   <g id="line2d_110">
    <path d="M 366.351741 54.458182 
L 399.537807 54.458182 
L 404.278674 54.458182 
L 409.019541 54.458182 
L 418.501274 54.458182 
L 423.242141 54.458182 
" clip-path="url(#pb0291bee39)" style="fill: none; stroke: #ffa500; stroke-width: 1.5; stroke-linecap: square"/>
   </g>
   <g id="line2d_111">
    <path d="M 446.946474 51.709091 
L 451.68734 51.709091 
L 484.873406 51.709091 
L 513.318606 51.709091 
L 565.468139 51.709091 
L 570.209005 51.709091 
L 574.949872 51.709091 
" clip-path="url(#pb0291bee39)" style="fill: none; stroke: #ffa500; stroke-width: 1.5; stroke-linecap: square"/>
   </g>
   <g id="line2d_112">
    <path d="M 328.424808 48.96 
L 437.46474 48.96 
L 446.946474 48.96 
L 475.391673 48.96 
L 489.614273 48.96 
L 513.318606 48.96 
L 518.059473 48.96 
" clip-path="url(#pb0291bee39)" style="fill: none; stroke: #ffa500; stroke-width: 1.5; stroke-linecap: square"/>
   </g>
   <g id="line2d_113">
    <path d="M 385.315208 46.210909 
L 456.428207 46.210909 
L 461.169073 46.210909 
L 480.13254 46.210909 
L 489.614273 46.210909 
L 518.059473 46.210909 
L 546.504672 46.210909 
" clip-path="url(#pb0291bee39)" style="fill: none; stroke: #ffa500; stroke-width: 1.5; stroke-linecap: square"/>
   </g>
   <g id="line2d_114">
    <path d="M 508.577739 43.461818 
L 527.541206 43.461818 
L 537.022939 43.461818 
L 551.245539 43.461818 
L 565.468139 43.461818 
" clip-path="url(#pb0291bee39)" style="fill: none; stroke: #ffa500; stroke-width: 1.5; stroke-linecap: square"/>
   </g>
   <g id="line2d_115">
    <path d="M 413.760407 40.712727 
L 437.46474 40.712727 
L 446.946474 40.712727 
L 480.13254 40.712727 
L 484.873406 40.712727 
L 555.986406 40.712727 
L 574.949872 40.712727 
" clip-path="url(#pb0291bee39)" style="fill: none; stroke: #ffa500; stroke-width: 1.5; stroke-linecap: square"/>
   </g>
   <g id="line2d_116">
    <path d="M 399.537807 37.963636 
L 404.278674 37.963636 
L 470.650807 37.963636 
L 503.836873 37.963636 
L 537.022939 37.963636 
L 541.763806 37.963636 
" clip-path="url(#pb0291bee39)" style="fill: none; stroke: #ffa500; stroke-width: 1.5; stroke-linecap: square"/>
   </g>
   <g id="line2d_117">
    <path d="M 290.497875 35.214545 
L 427.983007 35.214545 
L 446.946474 35.214545 
L 470.650807 35.214545 
L 527.541206 35.214545 
L 532.282073 35.214545 
" clip-path="url(#pb0291bee39)" style="fill: none; stroke: #ffa500; stroke-width: 1.5; stroke-linecap: square"/>
   </g>
   <g id="line2d_118">
    <path d="M 200.42141 32.465455 
L 238.348343 32.465455 
L 323.683942 32.465455 
L 375.833474 32.465455 
L 404.278674 32.465455 
L 484.873406 32.465455 
" clip-path="url(#pb0291bee39)" style="fill: none; stroke: #ffa500; stroke-width: 1.5; stroke-linecap: square"/>
   </g>
   <g id="line2d_119">
    <path d="M 423.242141 29.716364 
L 432.723874 29.716364 
L 456.428207 29.716364 
L 527.541206 29.716364 
L 532.282073 29.716364 
L 537.022939 29.716364 
" clip-path="url(#pb0291bee39)" style="fill: none; stroke: #ffa500; stroke-width: 1.5; stroke-linecap: square"/>
   </g>
   <g id="line2d_120">
    <path d="M 413.760407 26.967273 
L 456.428207 26.967273 
L 532.282073 26.967273 
L 560.727272 26.967273 
L 570.209005 26.967273 
" clip-path="url(#pb0291bee39)" style="fill: none; stroke: #ffa500; stroke-width: 1.5; stroke-linecap: square"/>
   </g>
   <g id="line2d_121">
    <path d="M 352.129141 24.218182 
L 437.46474 24.218182 
L 465.90994 24.218182 
L 475.391673 24.218182 
L 503.836873 24.218182 
L 560.727272 24.218182 
" clip-path="url(#pb0291bee39)" style="fill: none; stroke: #ffa500; stroke-width: 1.5; stroke-linecap: square"/>
   </g>
   <g id="line2d_122">
    <path d="M 423.242141 21.469091 
L 427.983007 21.469091 
L 484.873406 21.469091 
L 527.541206 21.469091 
L 546.504672 21.469091 
L 555.986406 21.469091 
" clip-path="url(#pb0291bee39)" style="fill: none; stroke: #ffa500; stroke-width: 1.5; stroke-linecap: square"/>
   </g>
   <g id="line2d_123">
    <path d="M 413.760407 18.72 
L 442.205607 18.72 
L 518.059473 18.72 
L 541.763806 18.72 
L 565.468139 18.72 
" clip-path="url(#pb0291bee39)" style="fill: none; stroke: #ffa500; stroke-width: 1.5; stroke-linecap: square"/>
   </g>
   <g id="patch_3">
    <path d="M 47.054375 336.24 
L 47.054375 3.6 
" style="fill: none; stroke: #3a4f43; stroke-width: 0.8; stroke-linejoin: miter; stroke-linecap: square"/>
   </g>
   <g id="patch_4">
    <path d="M 605.054375 336.24 
L 605.054375 3.6 
" style="fill: none; stroke: #3a4f43; stroke-width: 0.8; stroke-linejoin: miter; stroke-linecap: square"/>
   </g>
   <g id="patch_5">
    <path d="M 47.054375 336.24 
L 605.054375 336.24 
" style="fill: none; stroke: #3a4f43; stroke-width: 0.8; stroke-linejoin: miter; stroke-linecap: square"/>
   </g>
   <g id="patch_6">
    <path d="M 47.054375 3.6 
L 605.054375 3.6 
" style="fill: none; stroke: #3a4f43; stroke-width: 0.8; stroke-linejoin: miter; stroke-linecap: square"/>
   </g>
  </g>
 </g>
 <defs>
  <clipPath id="pb0291bee39">
   <rect x="47.054375" y="3.6" width="558" height="332.64"/>
  </clipPath>
 </defs>
</svg>
