<?xml version="1.0" encoding="utf-8" standalone="no"?>
<!DOCTYPE svg PUBLIC "-//W3C//DTD SVG 1.1//EN"
  "http://www.w3.org/Graphics/SVG/1.1/DTD/svg11.dtd">
<svg xmlns:xlink="http://www.w3.org/1999/xlink" width="608.654375pt" height="376.003125pt" viewBox="0 0 608.654375 376.003125" xmlns="http://www.w3.org/2000/svg" version="1.1">
 <metadata>
  <rdf:RDF xmlns:dc="http://purl.org/dc/elements/1.1/" xmlns:cc="http://creativecommons.org/ns#" xmlns:rdf="http://www.w3.org/1999/02/22-rdf-syntax-ns#">
   <cc:Work>
    <dc:type rdf:resource="http://purl.org/dc/dcmitype/StillImage"/>
    <dc:date>2026-01-31T16:41:22.506721</dc:date>
    <dc:format>image/svg+xml</dc:format>
    <dc:creator>
     <cc:Agent>
      <dc:title>Matplotlib v3.10.8, https://matplotlib.org/</dc:title>
     </cc:Agent>
    </dc:creator>
   </cc:Work>
  </rdf:RDF>
 </metadata>
 <defs>
  <style type="text/css">*{stroke-linejoin: round; stroke-linecap: butt}</style>
 </defs>
 <g id="figure_1">
  <g id="patch_1">
   <path d="M 0 376.003125 
L 608.654375 376.003125 
L 608.654375 0 
L 0 0 
L 0 376.003125 
z
" style="fill: none"/>
  </g>
  <g id="axes_1">
   <g id="patch_2">
    <path d="M 47.054375 336.24 
L 605.054375 336.24 
L 605.054375 3.6 
L 47.054375 3.6 
L 47.054375 336.24 
z
" style="fill: none"/>
   </g>
   <g id="matplotlib.axis_1">
    <g id="xtick_1">
     <g id="line2d_1">
      <defs>
       <path id="m4b152629de" d="M 0 0 
L 0 3.5 
" style="stroke: #3a4f43; stroke-width: 0.8"/>
      </defs>
      <g>
       <use xlink:href="#m4b152629de" x="77.158878" y="336.24" style="fill: #3a4f43; stroke: #3a4f43; stroke-width: 0.8"/>
      </g>
     </g>
     <g id="text_1">
      <!-- 1920 -->
      <g style="fill: #3a4f43" transform="translate(61.888878 352.358125) scale(0.12 -0.12)">
       <defs>
        <path id="DejaVuSans-31" d="M 794 531 
L 1825 531 
L 1825 4091 
L 703 3866 
L 703 4441 
L 1819 4666 
L 2450 4666 
L 2450 531 
L 3481 531 
L 3481 0 
L 794 0 
L 794 531 
z
" transform="scale(0.015625)"/>
        <path id="DejaVuSans-39" d="M 703 97 
L 703 672 
Q 941 559 1184 500 
Q 1428 441 1663 441 
Q 2288 441 2617 861 
Q 2947 1281 2994 2138 
Q 2813 1869 2534 1725 
Q 2256 1581 1919 1581 
Q 1219 1581 811 2004 
Q 403 2428 403 3163 
Q 403 3881 828 4315 
Q 1253 4750 1959 4750 
Q 2769 4750 3195 4129 
Q 3622 3509 3622 2328 
Q 3622 1225 3098 567 
Q 2575 -91 1691 -91 
Q 1453 -91 1209 -44 
Q 966 3 703 97 
z
M 1959 2075 
Q 2384 2075 2632 2365 
Q 2881 2656 2881 3163 
Q 2881 3666 2632 3958 
Q 2384 4250 1959 4250 
Q 1534 4250 1286 3958 
Q 1038 3666 1038 3163 
Q 1038 2656 1286 2365 
Q 1534 2075 1959 2075 
z
" transform="scale(0.015625)"/>
        <path id="DejaVuSans-32" d="M 1228 531 
L 3431 531 
L 3431 0 
L 469 0 
L 469 531 
Q 828 903 1448 1529 
Q 2069 2156 2228 2338 
Q 2531 2678 2651 2914 
Q 2772 3150 2772 3378 
Q 2772 3750 2511 3984 
Q 2250 4219 1831 4219 
Q 1534 4219 1204 4116 
Q 875 4013 500 3803 
L 500 4441 
Q 881 4594 1212 4672 
Q 1544 4750 1819 4750 
Q 2544 4750 2975 4387 
Q 3406 4025 3406 3419 
Q 3406 3131 3298 2873 
Q 3191 2616 2906 2266 
Q 2828 2175 2409 1742 
Q 1991 1309 1228 531 
z
" transform="scale(0.015625)"/>
        <path id="DejaVuSans-30" d="M 2034 4250 
Q 1547 4250 1301 3770 
Q 1056 3291 1056 2328 
Q 1056 1369 1301 889 
Q 1547 409 2034 409 
Q 2525 409 2770 889 
Q 3016 1369 3016 2328 
Q 3016 3291 2770 3770 
Q 2525 4250 2034 4250 
z
M 2034 4750 
Q 2819 4750 3233 4129 
Q 3647 3509 3647 2328 
Q 3647 1150 3233 529 
Q 2819 -91 2034 -91 
Q 1250 -91 836 529 
Q 422 1150 422 2328 
Q 422 3509 836 4129 
Q 1250 4750 2034 4750 
z
" transform="scale(0.015625)"/>
       </defs>
       <use xlink:href="#DejaVuSans-31"/>
       <use xlink:href="#DejaVuSans-39" transform="translate(63.623047 0)"/>
       <use xlink:href="#DejaVuSans-32" transform="translate(127.246094 0)"/>
       <use xlink:href="#DejaVuSans-30" transform="translate(190.869141 0)"/>
      </g>
     </g>
    </g>
    <g id="xtick_2">
     <g id="line2d_2">
      <g>
       <use xlink:href="#m4b152629de" x="171.97621" y="336.24" style="fill: #3a4f43; stroke: #3a4f43; stroke-width: 0.8"/>
      </g>
     </g>
     <g id="text_2">
      <!-- 1940 -->
      <g style="fill: #3a4f43" transform="translate(156.70621 352.358125) scale(0.12 -0.12)">
       <defs>
        <path id="DejaVuSans-34" d="M 2419 4116 
L 825 1625 
L 2419 1625 
L 2419 4116 
z
M 2253 4666 
L 3047 4666 
L 3047 1625 
L 3713 1625 
L 3713 1100 
L 3047 1100 
L 3047 0 
L 2419 0 
L 2419 1100 
L 313 1100 
L 313 1709 
L 2253 4666 
z
" transform="scale(0.015625)"/>
       </defs>
       <use xlink:href="#DejaVuSans-31"/>
       <use xlink:href="#DejaVuSans-39" transform="translate(63.623047 0)"/>
       <use xlink:href="#DejaVuSans-34" transform="translate(127.246094 0)"/>
       <use xlink:href="#DejaVuSans-30" transform="translate(190.869141 0)"/>
      </g>
     </g>
    </g>
    <g id="xtick_3">
     <g id="line2d_3">
      <g>
       <use xlink:href="#m4b152629de" x="266.793542" y="336.24" style="fill: #3a4f43; stroke: #3a4f43; stroke-width: 0.8"/>
      </g>
     </g>
     <g id="text_3">
      <!-- 1960 -->
      <g style="fill: #3a4f43" transform="translate(251.523542 352.358125) scale(0.12 -0.12)">
       <defs>
        <path id="DejaVuSans-36" d="M 2113 2584 
Q 1688 2584 1439 2293 
Q 1191 2003 1191 1497 
Q 1191 994 1439 701 
Q 1688 409 2113 409 
Q 2538 409 2786 701 
Q 3034 994 3034 1497 
Q 3034 2003 2786 2293 
Q 2538 2584 2113 2584 
z
M 3366 4563 
L 3366 3988 
Q 3128 4100 2886 4159 
Q 2644 4219 2406 4219 
Q 1781 4219 1451 3797 
Q 1122 3375 1075 2522 
Q 1259 2794 1537 2939 
Q 1816 3084 2150 3084 
Q 2853 3084 3261 2657 
Q 3669 2231 3669 1497 
Q 3669 778 3244 343 
Q 2819 -91 2113 -91 
Q 1303 -91 875 529 
Q 447 1150 447 2328 
Q 447 3434 972 4092 
Q 1497 4750 2381 4750 
Q 2619 4750 2861 4703 
Q 3103 4656 3366 4563 
z
" transform="scale(0.015625)"/>
       </defs>
       <use xlink:href="#DejaVuSans-31"/>
       <use xlink:href="#DejaVuSans-39" transform="translate(63.623047 0)"/>
       <use xlink:href="#DejaVuSans-36" transform="translate(127.246094 0)"/>
       <use xlink:href="#DejaVuSans-30" transform="translate(190.869141 0)"/>
      </g>
     </g>
    </g>
    <g id="xtick_4">
     <g id="line2d_4">
      <g>
       <use xlink:href="#m4b152629de" x="361.610875" y="336.24" style="fill: #3a4f43; stroke: #3a4f43; stroke-width: 0.8"/>
      </g>
     </g>
     <g id="text_4">
      <!-- 1980 -->
      <g style="fill: #3a4f43" transform="translate(346.340875 352.358125) scale(0.12 -0.12)">
       <defs>
        <path id="DejaVuSans-38" d="M 2034 2216 
Q 1584 2216 1326 1975 
Q 1069 1734 1069 1313 
Q 1069 891 1326 650 
Q 1584 409 2034 409 
Q 2484 409 2743 651 
Q 3003 894 3003 1313 
Q 3003 1734 2745 1975 
Q 2488 2216 2034 2216 
z
M 1403 2484 
Q 997 2584 770 2862 
Q 544 3141 544 3541 
Q 544 4100 942 4425 
Q 1341 4750 2034 4750 
Q 2731 4750 3128 4425 
Q 3525 4100 3525 3541 
Q 3525 3141 3298 2862 
Q 3072 2584 2669 2484 
Q 3125 2378 3379 2068 
Q 3634 1759 3634 1313 
Q 3634 634 3220 271 
Q 2806 -91 2034 -91 
Q 1263 -91 848 271 
Q 434 634 434 1313 
Q 434 1759 690 2068 
Q 947 2378 1403 2484 
z
M 1172 3481 
Q 1172 3119 1398 2916 
Q 1625 2713 2034 2713 
Q 2441 2713 2670 2916 
Q 2900 3119 2900 3481 
Q 2900 3844 2670 4047 
Q 2441 4250 2034 4250 
Q 1625 4250 1398 4047 
Q 1172 3844 1172 3481 
z
" transform="scale(0.015625)"/>
       </defs>
       <use xlink:href="#DejaVuSans-31"/>
       <use xlink:href="#DejaVuSans-39" transform="translate(63.623047 0)"/>
       <use xlink:href="#DejaVuSans-38" transform="translate(127.246094 0)"/>
       <use xlink:href="#DejaVuSans-30" transform="translate(190.869141 0)"/>
      </g>
     </g>
    </g>
    <g id="xtick_5">
     <g id="line2d_5">
      <g>
       <use xlink:href="#m4b152629de" x="456.428207" y="336.24" style="fill: #3a4f43; stroke: #3a4f43; stroke-width: 0.8"/>
      </g>
     </g>
     <g id="text_5">
      <!-- 2000 -->
      <g style="fill: #3a4f43" transform="translate(441.158207 352.358125) scale(0.12 -0.12)">
       <use xlink:href="#DejaVuSans-32"/>
       <use xlink:href="#DejaVuSans-30" transform="translate(63.623047 0)"/>
       <use xlink:href="#DejaVuSans-30" transform="translate(127.246094 0)"/>
       <use xlink:href="#DejaVuSans-30" transform="translate(190.869141 0)"/>
      </g>
     </g>
    </g>
    <g id="xtick_6">
     <g id="line2d_6">
      <g>
       <use xlink:href="#m4b152629de" x="551.245539" y="336.24" style="fill: #3a4f43; stroke: #3a4f43; stroke-width: 0.8"/>
      </g>
     </g>
     <g id="text_6">
      <!-- 2020 -->
      <g style="fill: #3a4f43" transform="translate(535.975539 352.358125) scale(0.12 -0.12)">
       <use xlink:href="#DejaVuSans-32"/>
       <use xlink:href="#DejaVuSans-30" transform="translate(63.623047 0)"/>
       <use xlink:href="#DejaVuSans-32" transform="translate(127.246094 0)"/>
       <use xlink:href="#DejaVuSans-30" transform="translate(190.869141 0)"/>
      </g>
     </g>
    </g>
    <g id="text_7">
     <!-- Anni -->
     <g style="fill: #3a4f43" transform="translate(310.44875 369.491562) scale(0.14 -0.14)">
      <defs>
       <path id="DejaVuSans-41" d="M 2188 4044 
L 1331 1722 
L 3047 1722 
L 2188 4044 
z
M 1831 4666 
L 2547 4666 
L 4325 0 
L 3669 0 
L 3244 1197 
L 1141 1197 
L 716 0 
L 50 0 
L 1831 4666 
z
" transform="scale(0.015625)"/>
       <path id="DejaVuSans-6e" d="M 3513 2113 
L 3513 0 
L 2938 0 
L 2938 2094 
Q 2938 2591 2744 2837 
Q 2550 3084 2163 3084 
Q 1697 3084 1428 2787 
Q 1159 2491 1159 1978 
L 1159 0 
L 581 0 
L 581 3500 
L 1159 3500 
L 1159 2956 
Q 1366 3272 1645 3428 
Q 1925 3584 2291 3584 
Q 2894 3584 3203 3211 
Q 3513 2838 3513 2113 
z
" transform="scale(0.015625)"/>
       <path id="DejaVuSans-69" d="M 603 3500 
L 1178 3500 
L 1178 0 
L 603 0 
L 603 3500 
z
M 603 4863 
L 1178 4863 
L 1178 4134 
L 603 4134 
L 603 4863 
z
" transform="scale(0.015625)"/>
      </defs>
      <use xlink:href="#DejaVuSans-41"/>
      <use xlink:href="#DejaVuSans-6e" transform="translate(68.408203 0)"/>
      <use xlink:href="#DejaVuSans-6e" transform="translate(131.787109 0)"/>
      <use xlink:href="#DejaVuSans-69" transform="translate(195.166016 0)"/>
     </g>
    </g>
   </g>
   <g id="matplotlib.axis_2">
    <g id="ytick_1">
     <g id="line2d_7">
      <defs>
       <path id="mfac2729e8c" d="M 0 0 
L -3.5 0 
" style="stroke: #3a4f43; stroke-width: 0.8"/>
      </defs>
      <g>
       <use xlink:href="#mfac2729e8c" x="47.054375" y="321.12" style="fill: #3a4f43; stroke: #3a4f43; stroke-width: 0.8"/>
      </g>
     </g>
     <g id="text_8">
      <!-- 0 -->
      <g style="fill: #3a4f43" transform="translate(32.419375 325.679062) scale(0.12 -0.12)">
       <use xlink:href="#DejaVuSans-30"/>
      </g>
     </g>
    </g>
    <g id="ytick_2">
     <g id="line2d_8">
      <g>
       <use xlink:href="#mfac2729e8c" x="47.054375" y="271.136529" style="fill: #3a4f43; stroke: #3a4f43; stroke-width: 0.8"/>
      </g>
     </g>
     <g id="text_9">
      <!-- 20 -->
      <g style="fill: #3a4f43" transform="translate(24.784375 275.695591) scale(0.12 -0.12)">
       <use xlink:href="#DejaVuSans-32"/>
       <use xlink:href="#DejaVuSans-30" transform="translate(63.623047 0)"/>
      </g>
     </g>
    </g>
    <g id="ytick_3">
     <g id="line2d_9">
      <g>
       <use xlink:href="#mfac2729e8c" x="47.054375" y="221.153058" style="fill: #3a4f43; stroke: #3a4f43; stroke-width: 0.8"/>
      </g>
     </g>
     <g id="text_10">
      <!-- 40 -->
      <g style="fill: #3a4f43" transform="translate(24.784375 225.71212) scale(0.12 -0.12)">
       <use xlink:href="#DejaVuSans-34"/>
       <use xlink:href="#DejaVuSans-30" transform="translate(63.623047 0)"/>
      </g>
     </g>
    </g>
    <g id="ytick_4">
     <g id="line2d_10">
      <g>
       <use xlink:href="#mfac2729e8c" x="47.054375" y="171.169587" style="fill: #3a4f43; stroke: #3a4f43; stroke-width: 0.8"/>
      </g>
     </g>
     <g id="text_11">
      <!-- 60 -->
      <g style="fill: #3a4f43" transform="translate(24.784375 175.728649) scale(0.12 -0.12)">
       <use xlink:href="#DejaVuSans-36"/>
       <use xlink:href="#DejaVuSans-30" transform="translate(63.623047 0)"/>
      </g>
     </g>
    </g>
    <g id="ytick_5">
     <g id="line2d_11">
      <g>
       <use xlink:href="#mfac2729e8c" x="47.054375" y="121.186116" style="fill: #3a4f43; stroke: #3a4f43; stroke-width: 0.8"/>
      </g>
     </g>
     <g id="text_12">
      <!-- 80 -->
      <g style="fill: #3a4f43" transform="translate(24.784375 125.745178) scale(0.12 -0.12)">
       <use xlink:href="#DejaVuSans-38"/>
       <use xlink:href="#DejaVuSans-30" transform="translate(63.623047 0)"/>
      </g>
     </g>
    </g>
    <g id="ytick_6">
     <g id="line2d_12">
      <g>
       <use xlink:href="#mfac2729e8c" x="47.054375" y="71.202645" style="fill: #3a4f43; stroke: #3a4f43; stroke-width: 0.8"/>
      </g>
     </g>
     <g id="text_13">
      <!-- 100 -->
      <g style="fill: #3a4f43" transform="translate(17.149375 75.761707) scale(0.12 -0.12)">
       <use xlink:href="#DejaVuSans-31"/>
       <use xlink:href="#DejaVuSans-30" transform="translate(63.623047 0)"/>
       <use xlink:href="#DejaVuSans-30" transform="translate(127.246094 0)"/>
      </g>
     </g>
    </g>
    <g id="ytick_7">
     <g id="line2d_13">
      <g>
       <use xlink:href="#mfac2729e8c" x="47.054375" y="21.219174" style="fill: #3a4f43; stroke: #3a4f43; stroke-width: 0.8"/>
      </g>
     </g>
     <g id="text_14">
      <!-- 120 -->
      <g style="fill: #3a4f43" transform="translate(17.149375 25.778236) scale(0.12 -0.12)">
       <use xlink:href="#DejaVuSans-31"/>
       <use xlink:href="#DejaVuSans-32" transform="translate(63.623047 0)"/>
       <use xlink:href="#DejaVuSans-30" transform="translate(127.246094 0)"/>
      </g>
     </g>
    </g>
    <g id="text_15">
     <!-- ID Cluster -->
     <g style="fill: #3a4f43" transform="translate(14.237813 204.444219) rotate(-90) scale(0.14 -0.14)">
      <defs>
       <path id="DejaVuSans-49" d="M 628 4666 
L 1259 4666 
L 1259 0 
L 628 0 
L 628 4666 
z
" transform="scale(0.015625)"/>
       <path id="DejaVuSans-44" d="M 1259 4147 
L 1259 519 
L 2022 519 
Q 2988 519 3436 956 
Q 3884 1394 3884 2338 
Q 3884 3275 3436 3711 
Q 2988 4147 2022 4147 
L 1259 4147 
z
M 628 4666 
L 1925 4666 
Q 3281 4666 3915 4102 
Q 4550 3538 4550 2338 
Q 4550 1131 3912 565 
Q 3275 0 1925 0 
L 628 0 
L 628 4666 
z
" transform="scale(0.015625)"/>
       <path id="DejaVuSans-20" transform="scale(0.015625)"/>
       <path id="DejaVuSans-43" d="M 4122 4306 
L 4122 3641 
Q 3803 3938 3442 4084 
Q 3081 4231 2675 4231 
Q 1875 4231 1450 3742 
Q 1025 3253 1025 2328 
Q 1025 1406 1450 917 
Q 1875 428 2675 428 
Q 3081 428 3442 575 
Q 3803 722 4122 1019 
L 4122 359 
Q 3791 134 3420 21 
Q 3050 -91 2638 -91 
Q 1578 -91 968 557 
Q 359 1206 359 2328 
Q 359 3453 968 4101 
Q 1578 4750 2638 4750 
Q 3056 4750 3426 4639 
Q 3797 4528 4122 4306 
z
" transform="scale(0.015625)"/>
       <path id="DejaVuSans-6c" d="M 603 4863 
L 1178 4863 
L 1178 0 
L 603 0 
L 603 4863 
z
" transform="scale(0.015625)"/>
       <path id="DejaVuSans-75" d="M 544 1381 
L 544 3500 
L 1119 3500 
L 1119 1403 
Q 1119 906 1312 657 
Q 1506 409 1894 409 
Q 2359 409 2629 706 
Q 2900 1003 2900 1516 
L 2900 3500 
L 3475 3500 
L 3475 0 
L 2900 0 
L 2900 538 
Q 2691 219 2414 64 
Q 2138 -91 1772 -91 
Q 1169 -91 856 284 
Q 544 659 544 1381 
z
M 1991 3584 
L 1991 3584 
z
" transform="scale(0.015625)"/>
       <path id="DejaVuSans-73" d="M 2834 3397 
L 2834 2853 
Q 2591 2978 2328 3040 
Q 2066 3103 1784 3103 
Q 1356 3103 1142 2972 
Q 928 2841 928 2578 
Q 928 2378 1081 2264 
Q 1234 2150 1697 2047 
L 1894 2003 
Q 2506 1872 2764 1633 
Q 3022 1394 3022 966 
Q 3022 478 2636 193 
Q 2250 -91 1575 -91 
Q 1294 -91 989 -36 
Q 684 19 347 128 
L 347 722 
Q 666 556 975 473 
Q 1284 391 1588 391 
Q 1994 391 2212 530 
Q 2431 669 2431 922 
Q 2431 1156 2273 1281 
Q 2116 1406 1581 1522 
L 1381 1569 
Q 847 1681 609 1914 
Q 372 2147 372 2553 
Q 372 3047 722 3315 
Q 1072 3584 1716 3584 
Q 2034 3584 2315 3537 
Q 2597 3491 2834 3397 
z
" transform="scale(0.015625)"/>
       <path id="DejaVuSans-74" d="M 1172 4494 
L 1172 3500 
L 2356 3500 
L 2356 3053 
L 1172 3053 
L 1172 1153 
Q 1172 725 1289 603 
Q 1406 481 1766 481 
L 2356 481 
L 2356 0 
L 1766 0 
Q 1100 0 847 248 
Q 594 497 594 1153 
L 594 3053 
L 172 3053 
L 172 3500 
L 594 3500 
L 594 4494 
L 1172 4494 
z
" transform="scale(0.015625)"/>
       <path id="DejaVuSans-65" d="M 3597 1894 
L 3597 1613 
L 953 1613 
Q 991 1019 1311 708 
Q 1631 397 2203 397 
Q 2534 397 2845 478 
Q 3156 559 3463 722 
L 3463 178 
Q 3153 47 2828 -22 
Q 2503 -91 2169 -91 
Q 1331 -91 842 396 
Q 353 884 353 1716 
Q 353 2575 817 3079 
Q 1281 3584 2069 3584 
Q 2775 3584 3186 3129 
Q 3597 2675 3597 1894 
z
M 3022 2063 
Q 3016 2534 2758 2815 
Q 2500 3097 2075 3097 
Q 1594 3097 1305 2825 
Q 1016 2553 972 2059 
L 3022 2063 
z
" transform="scale(0.015625)"/>
       <path id="DejaVuSans-72" d="M 2631 2963 
Q 2534 3019 2420 3045 
Q 2306 3072 2169 3072 
Q 1681 3072 1420 2755 
Q 1159 2438 1159 1844 
L 1159 0 
L 581 0 
L 581 3500 
L 1159 3500 
L 1159 2956 
Q 1341 3275 1631 3429 
Q 1922 3584 2338 3584 
Q 2397 3584 2469 3576 
Q 2541 3569 2628 3553 
L 2631 2963 
z
" transform="scale(0.015625)"/>
      </defs>
      <use xlink:href="#DejaVuSans-49"/>
      <use xlink:href="#DejaVuSans-44" transform="translate(29.492188 0)"/>
      <use xlink:href="#DejaVuSans-20" transform="translate(106.494141 0)"/>
      <use xlink:href="#DejaVuSans-43" transform="translate(138.28125 0)"/>
      <use xlink:href="#DejaVuSans-6c" transform="translate(208.105469 0)"/>
      <use xlink:href="#DejaVuSans-75" transform="translate(235.888672 0)"/>
      <use xlink:href="#DejaVuSans-73" transform="translate(299.267578 0)"/>
      <use xlink:href="#DejaVuSans-74" transform="translate(351.367188 0)"/>
      <use xlink:href="#DejaVuSans-65" transform="translate(390.576172 0)"/>
      <use xlink:href="#DejaVuSans-72" transform="translate(452.099609 0)"/>
     </g>
    </g>
   </g>
   <g id="line2d_14">
    <path d="M 299.979609 321.12 
L 318.943075 321.12 
L 333.165675 321.12 
L 356.870008 321.12 
L 366.351741 321.12 
L 371.092608 321.12 
L 375.833474 321.12 
L 390.056074 321.12 
L 404.278674 321.12 
L 413.760407 321.12 
L 418.501274 321.12 
L 423.242141 321.12 
L 427.983007 321.12 
L 432.723874 321.12 
L 437.46474 321.12 
L 442.205607 321.12 
L 446.946474 321.12 
L 451.68734 321.12 
L 456.428207 321.12 
L 461.169073 321.12 
L 465.90994 321.12 
L 470.650807 321.12 
L 480.13254 321.12 
L 489.614273 321.12 
L 499.096006 321.12 
L 513.318606 321.12 
L 518.059473 321.12 
L 522.800339 321.12 
L 527.541206 321.12 
L 532.282073 321.12 
L 541.763806 321.12 
L 551.245539 321.12 
L 555.986406 321.12 
L 565.468139 321.12 
L 570.209005 321.12 
L 574.949872 321.12 
" clip-path="url(#p491fde1c62)" style="fill: none; stroke: #ffa500; stroke-width: 1.5; stroke-linecap: square"/>
   </g>
   <g id="line2d_15">
    <path d="M 219.384876 318.620826 
L 309.461342 318.620826 
L 380.574341 318.620826 
L 385.315208 318.620826 
L 390.056074 318.620826 
L 404.278674 318.620826 
L 413.760407 318.620826 
L 418.501274 318.620826 
L 423.242141 318.620826 
L 432.723874 318.620826 
L 437.46474 318.620826 
L 442.205607 318.620826 
L 446.946474 318.620826 
L 451.68734 318.620826 
L 456.428207 318.620826 
L 461.169073 318.620826 
L 470.650807 318.620826 
L 475.391673 318.620826 
L 480.13254 318.620826 
L 484.873406 318.620826 
L 489.614273 318.620826 
L 503.836873 318.620826 
L 508.577739 318.620826 
L 513.318606 318.620826 
L 518.059473 318.620826 
L 522.800339 318.620826 
L 527.541206 318.620826 
L 537.022939 318.620826 
L 555.986406 318.620826 
L 565.468139 318.620826 
L 574.949872 318.620826 
" clip-path="url(#p491fde1c62)" style="fill: none; stroke: #ffa500; stroke-width: 1.5; stroke-linecap: square"/>
   </g>
   <g id="line2d_16">
    <path d="M 266.793542 316.121653 
L 271.534409 316.121653 
L 276.275276 316.121653 
L 281.016142 316.121653 
L 290.497875 316.121653 
L 328.424808 316.121653 
L 361.610875 316.121653 
L 375.833474 316.121653 
L 404.278674 316.121653 
L 409.019541 316.121653 
L 418.501274 316.121653 
L 427.983007 316.121653 
L 432.723874 316.121653 
L 437.46474 316.121653 
L 442.205607 316.121653 
L 446.946474 316.121653 
L 451.68734 316.121653 
L 456.428207 316.121653 
L 461.169073 316.121653 
L 465.90994 316.121653 
L 484.873406 316.121653 
L 494.35514 316.121653 
L 499.096006 316.121653 
L 527.541206 316.121653 
L 537.022939 316.121653 
L 546.504672 316.121653 
L 560.727272 316.121653 
L 565.468139 316.121653 
L 570.209005 316.121653 
L 574.949872 316.121653 
" clip-path="url(#p491fde1c62)" style="fill: none; stroke: #ffa500; stroke-width: 1.5; stroke-linecap: square"/>
   </g>
   <g id="line2d_17">
    <path d="M 271.534409 313.622479 
L 295.238742 313.622479 
L 318.943075 313.622479 
L 361.610875 313.622479 
L 366.351741 313.622479 
L 390.056074 313.622479 
L 423.242141 313.622479 
L 427.983007 313.622479 
L 442.205607 313.622479 
L 446.946474 313.622479 
L 456.428207 313.622479 
L 461.169073 313.622479 
L 465.90994 313.622479 
L 470.650807 313.622479 
L 480.13254 313.622479 
L 484.873406 313.622479 
L 494.35514 313.622479 
L 499.096006 313.622479 
L 503.836873 313.622479 
L 508.577739 313.622479 
L 513.318606 313.622479 
L 518.059473 313.622479 
L 527.541206 313.622479 
L 532.282073 313.622479 
L 546.504672 313.622479 
L 551.245539 313.622479 
L 555.986406 313.622479 
L 560.727272 313.622479 
L 574.949872 313.622479 
" clip-path="url(#p491fde1c62)" style="fill: none; stroke: #ffa500; stroke-width: 1.5; stroke-linecap: square"/>
   </g>
   <g id="line2d_18">
    <path d="M 342.647408 311.123306 
L 361.610875 311.123306 
L 371.092608 311.123306 
L 385.315208 311.123306 
L 409.019541 311.123306 
L 413.760407 311.123306 
L 427.983007 311.123306 
L 432.723874 311.123306 
L 442.205607 311.123306 
L 446.946474 311.123306 
L 451.68734 311.123306 
L 470.650807 311.123306 
L 475.391673 311.123306 
L 484.873406 311.123306 
L 494.35514 311.123306 
L 499.096006 311.123306 
L 503.836873 311.123306 
L 508.577739 311.123306 
L 513.318606 311.123306 
L 518.059473 311.123306 
L 527.541206 311.123306 
L 532.282073 311.123306 
L 537.022939 311.123306 
L 541.763806 311.123306 
L 546.504672 311.123306 
L 551.245539 311.123306 
L 560.727272 311.123306 
L 565.468139 311.123306 
L 570.209005 311.123306 
L 574.949872 311.123306 
" clip-path="url(#p491fde1c62)" style="fill: none; stroke: #ffa500; stroke-width: 1.5; stroke-linecap: square"/>
   </g>
   <g id="line2d_19">
    <path d="M 238.348343 308.624132 
L 295.238742 308.624132 
L 309.461342 308.624132 
L 333.165675 308.624132 
L 352.129141 308.624132 
L 366.351741 308.624132 
L 371.092608 308.624132 
L 385.315208 308.624132 
L 404.278674 308.624132 
L 409.019541 308.624132 
L 413.760407 308.624132 
L 418.501274 308.624132 
L 437.46474 308.624132 
L 442.205607 308.624132 
L 456.428207 308.624132 
L 461.169073 308.624132 
L 465.90994 308.624132 
L 470.650807 308.624132 
L 484.873406 308.624132 
L 489.614273 308.624132 
L 494.35514 308.624132 
L 499.096006 308.624132 
L 508.577739 308.624132 
L 513.318606 308.624132 
L 537.022939 308.624132 
L 541.763806 308.624132 
L 570.209005 308.624132 
L 574.949872 308.624132 
" clip-path="url(#p491fde1c62)" style="fill: none; stroke: #ffa500; stroke-width: 1.5; stroke-linecap: square"/>
   </g>
   <g id="line2d_20">
    <path d="M 304.720475 306.124959 
L 309.461342 306.124959 
L 328.424808 306.124959 
L 342.647408 306.124959 
L 347.388275 306.124959 
L 352.129141 306.124959 
L 371.092608 306.124959 
L 385.315208 306.124959 
L 390.056074 306.124959 
L 404.278674 306.124959 
L 409.019541 306.124959 
L 413.760407 306.124959 
L 442.205607 306.124959 
L 456.428207 306.124959 
L 461.169073 306.124959 
L 465.90994 306.124959 
L 475.391673 306.124959 
L 484.873406 306.124959 
L 489.614273 306.124959 
L 494.35514 306.124959 
L 518.059473 306.124959 
L 522.800339 306.124959 
L 532.282073 306.124959 
L 537.022939 306.124959 
L 546.504672 306.124959 
L 551.245539 306.124959 
L 555.986406 306.124959 
L 560.727272 306.124959 
L 565.468139 306.124959 
L 570.209005 306.124959 
L 574.949872 306.124959 
" clip-path="url(#p491fde1c62)" style="fill: none; stroke: #ffa500; stroke-width: 1.5; stroke-linecap: square"/>
   </g>
   <g id="line2d_21">
    <path d="M 200.42141 303.625785 
L 205.162276 303.625785 
L 233.607476 303.625785 
L 238.348343 303.625785 
L 247.830076 303.625785 
L 276.275276 303.625785 
L 285.757009 303.625785 
L 295.238742 303.625785 
L 299.979609 303.625785 
L 314.202208 303.625785 
L 328.424808 303.625785 
L 337.906542 303.625785 
L 352.129141 303.625785 
L 361.610875 303.625785 
L 366.351741 303.625785 
L 380.574341 303.625785 
L 390.056074 303.625785 
L 399.537807 303.625785 
L 404.278674 303.625785 
L 409.019541 303.625785 
L 413.760407 303.625785 
L 432.723874 303.625785 
L 446.946474 303.625785 
L 456.428207 303.625785 
L 470.650807 303.625785 
L 480.13254 303.625785 
L 489.614273 303.625785 
L 546.504672 303.625785 
L 570.209005 303.625785 
" clip-path="url(#p491fde1c62)" style="fill: none; stroke: #ffa500; stroke-width: 1.5; stroke-linecap: square"/>
   </g>
   <g id="line2d_22">
    <path d="M 356.870008 301.126612 
L 380.574341 301.126612 
L 385.315208 301.126612 
L 404.278674 301.126612 
L 413.760407 301.126612 
L 418.501274 301.126612 
L 423.242141 301.126612 
L 427.983007 301.126612 
L 432.723874 301.126612 
L 437.46474 301.126612 
L 442.205607 301.126612 
L 446.946474 301.126612 
L 451.68734 301.126612 
L 456.428207 301.126612 
L 465.90994 301.126612 
L 470.650807 301.126612 
L 475.391673 301.126612 
L 480.13254 301.126612 
L 508.577739 301.126612 
L 513.318606 301.126612 
L 532.282073 301.126612 
L 555.986406 301.126612 
L 565.468139 301.126612 
L 570.209005 301.126612 
" clip-path="url(#p491fde1c62)" style="fill: none; stroke: #ffa500; stroke-width: 1.5; stroke-linecap: square"/>
   </g>
   <g id="line2d_23">
    <path d="M 328.424808 298.627438 
L 347.388275 298.627438 
L 352.129141 298.627438 
L 375.833474 298.627438 
L 532.282073 298.627438 
L 541.763806 298.627438 
L 546.504672 298.627438 
L 551.245539 298.627438 
L 555.986406 298.627438 
L 560.727272 298.627438 
L 565.468139 298.627438 
L 570.209005 298.627438 
L 574.949872 298.627438 
L 579.690739 298.627438 
" clip-path="url(#p491fde1c62)" style="fill: none; stroke: #ffa500; stroke-width: 1.5; stroke-linecap: square"/>
   </g>
   <g id="line2d_24">
    <path d="M 72.418011 296.128264 
L 195.680543 296.128264 
L 205.162276 296.128264 
L 214.64401 296.128264 
L 219.384876 296.128264 
L 228.866609 296.128264 
L 371.092608 296.128264 
L 399.537807 296.128264 
L 404.278674 296.128264 
L 413.760407 296.128264 
L 418.501274 296.128264 
L 423.242141 296.128264 
L 427.983007 296.128264 
L 437.46474 296.128264 
L 442.205607 296.128264 
L 446.946474 296.128264 
L 475.391673 296.128264 
L 484.873406 296.128264 
L 489.614273 296.128264 
L 518.059473 296.128264 
L 522.800339 296.128264 
L 541.763806 296.128264 
L 551.245539 296.128264 
L 555.986406 296.128264 
L 560.727272 296.128264 
L 565.468139 296.128264 
L 574.949872 296.128264 
L 579.690739 296.128264 
" clip-path="url(#p491fde1c62)" style="fill: none; stroke: #ffa500; stroke-width: 1.5; stroke-linecap: square"/>
   </g>
   <g id="line2d_25">
    <path d="M 209.903143 293.629091 
L 214.64401 293.629091 
L 257.311809 293.629091 
L 281.016142 293.629091 
L 304.720475 293.629091 
L 309.461342 293.629091 
L 314.202208 293.629091 
L 337.906542 293.629091 
L 347.388275 293.629091 
L 366.351741 293.629091 
L 371.092608 293.629091 
L 380.574341 293.629091 
L 385.315208 293.629091 
L 394.796941 293.629091 
L 399.537807 293.629091 
L 409.019541 293.629091 
L 413.760407 293.629091 
L 418.501274 293.629091 
L 427.983007 293.629091 
L 432.723874 293.629091 
L 437.46474 293.629091 
L 451.68734 293.629091 
L 475.391673 293.629091 
L 480.13254 293.629091 
L 494.35514 293.629091 
L 503.836873 293.629091 
L 555.986406 293.629091 
" clip-path="url(#p491fde1c62)" style="fill: none; stroke: #ffa500; stroke-width: 1.5; stroke-linecap: square"/>
   </g>
   <g id="line2d_26">
    <path d="M 323.683942 291.129917 
L 342.647408 291.129917 
L 371.092608 291.129917 
L 404.278674 291.129917 
L 432.723874 291.129917 
L 437.46474 291.129917 
L 446.946474 291.129917 
L 456.428207 291.129917 
L 461.169073 291.129917 
L 499.096006 291.129917 
L 508.577739 291.129917 
L 513.318606 291.129917 
L 518.059473 291.129917 
L 522.800339 291.129917 
L 532.282073 291.129917 
L 537.022939 291.129917 
L 541.763806 291.129917 
L 546.504672 291.129917 
L 551.245539 291.129917 
L 555.986406 291.129917 
L 560.727272 291.129917 
L 570.209005 291.129917 
L 574.949872 291.129917 
" clip-path="url(#p491fde1c62)" style="fill: none; stroke: #ffa500; stroke-width: 1.5; stroke-linecap: square"/>
   </g>
   <g id="line2d_27">
    <path d="M 318.943075 288.630744 
L 328.424808 288.630744 
L 352.129141 288.630744 
L 356.870008 288.630744 
L 375.833474 288.630744 
L 380.574341 288.630744 
L 394.796941 288.630744 
L 418.501274 288.630744 
L 423.242141 288.630744 
L 427.983007 288.630744 
L 432.723874 288.630744 
L 456.428207 288.630744 
L 465.90994 288.630744 
L 470.650807 288.630744 
L 480.13254 288.630744 
L 489.614273 288.630744 
L 499.096006 288.630744 
L 518.059473 288.630744 
L 522.800339 288.630744 
L 527.541206 288.630744 
L 546.504672 288.630744 
L 560.727272 288.630744 
L 570.209005 288.630744 
L 574.949872 288.630744 
" clip-path="url(#p491fde1c62)" style="fill: none; stroke: #ffa500; stroke-width: 1.5; stroke-linecap: square"/>
   </g>
   <g id="line2d_28">
    <path d="M 200.42141 286.13157 
L 205.162276 286.13157 
L 257.311809 286.13157 
L 285.757009 286.13157 
L 299.979609 286.13157 
L 323.683942 286.13157 
L 347.388275 286.13157 
L 361.610875 286.13157 
L 371.092608 286.13157 
L 375.833474 286.13157 
L 385.315208 286.13157 
L 399.537807 286.13157 
L 409.019541 286.13157 
L 427.983007 286.13157 
L 432.723874 286.13157 
L 451.68734 286.13157 
L 475.391673 286.13157 
L 484.873406 286.13157 
L 494.35514 286.13157 
L 499.096006 286.13157 
L 522.800339 286.13157 
L 541.763806 286.13157 
L 551.245539 286.13157 
L 555.986406 286.13157 
L 565.468139 286.13157 
L 570.209005 286.13157 
L 574.949872 286.13157 
" clip-path="url(#p491fde1c62)" style="fill: none; stroke: #ffa500; stroke-width: 1.5; stroke-linecap: square"/>
   </g>
   <g id="line2d_29">
    <path d="M 299.979609 283.632397 
L 309.461342 283.632397 
L 314.202208 283.632397 
L 323.683942 283.632397 
L 333.165675 283.632397 
L 337.906542 283.632397 
L 347.388275 283.632397 
L 371.092608 283.632397 
L 375.833474 283.632397 
L 380.574341 283.632397 
L 385.315208 283.632397 
L 390.056074 283.632397 
L 394.796941 283.632397 
L 404.278674 283.632397 
L 409.019541 283.632397 
L 423.242141 283.632397 
L 446.946474 283.632397 
L 451.68734 283.632397 
L 456.428207 283.632397 
L 465.90994 283.632397 
L 518.059473 283.632397 
L 537.022939 283.632397 
L 565.468139 283.632397 
" clip-path="url(#p491fde1c62)" style="fill: none; stroke: #ffa500; stroke-width: 1.5; stroke-linecap: square"/>
   </g>
   <g id="line2d_30">
    <path d="M 77.158878 281.133223 
L 81.899745 281.133223 
L 176.717077 281.133223 
L 190.939677 281.133223 
L 200.42141 281.133223 
L 205.162276 281.133223 
L 209.903143 281.133223 
L 214.64401 281.133223 
L 228.866609 281.133223 
L 247.830076 281.133223 
L 314.202208 281.133223 
L 323.683942 281.133223 
L 347.388275 281.133223 
L 361.610875 281.133223 
L 371.092608 281.133223 
L 380.574341 281.133223 
L 394.796941 281.133223 
L 404.278674 281.133223 
L 437.46474 281.133223 
L 456.428207 281.133223 
L 470.650807 281.133223 
L 518.059473 281.133223 
L 537.022939 281.133223 
L 555.986406 281.133223 
L 565.468139 281.133223 
L 574.949872 281.133223 
" clip-path="url(#p491fde1c62)" style="fill: none; stroke: #ffa500; stroke-width: 1.5; stroke-linecap: square"/>
   </g>
   <g id="line2d_31">
    <path d="M 224.125743 278.63405 
L 238.348343 278.63405 
L 257.311809 278.63405 
L 295.238742 278.63405 
L 304.720475 278.63405 
L 309.461342 278.63405 
L 314.202208 278.63405 
L 328.424808 278.63405 
L 337.906542 278.63405 
L 342.647408 278.63405 
L 371.092608 278.63405 
L 375.833474 278.63405 
L 385.315208 278.63405 
L 413.760407 278.63405 
L 418.501274 278.63405 
L 423.242141 278.63405 
L 427.983007 278.63405 
L 432.723874 278.63405 
L 437.46474 278.63405 
L 465.90994 278.63405 
L 470.650807 278.63405 
L 484.873406 278.63405 
L 499.096006 278.63405 
L 503.836873 278.63405 
L 508.577739 278.63405 
L 522.800339 278.63405 
L 532.282073 278.63405 
L 541.763806 278.63405 
L 574.949872 278.63405 
" clip-path="url(#p491fde1c62)" style="fill: none; stroke: #ffa500; stroke-width: 1.5; stroke-linecap: square"/>
   </g>
   <g id="line2d_32">
    <path d="M 238.348343 276.134876 
L 380.574341 276.134876 
L 413.760407 276.134876 
L 423.242141 276.134876 
L 427.983007 276.134876 
L 437.46474 276.134876 
L 446.946474 276.134876 
L 475.391673 276.134876 
L 484.873406 276.134876 
L 489.614273 276.134876 
L 494.35514 276.134876 
L 503.836873 276.134876 
L 508.577739 276.134876 
L 513.318606 276.134876 
L 518.059473 276.134876 
L 532.282073 276.134876 
L 546.504672 276.134876 
L 560.727272 276.134876 
L 565.468139 276.134876 
L 574.949872 276.134876 
" clip-path="url(#p491fde1c62)" style="fill: none; stroke: #ffa500; stroke-width: 1.5; stroke-linecap: square"/>
   </g>
   <g id="line2d_33">
    <path d="M 190.939677 273.635702 
L 200.42141 273.635702 
L 247.830076 273.635702 
L 271.534409 273.635702 
L 299.979609 273.635702 
L 333.165675 273.635702 
L 356.870008 273.635702 
L 361.610875 273.635702 
L 366.351741 273.635702 
L 375.833474 273.635702 
L 390.056074 273.635702 
L 394.796941 273.635702 
L 399.537807 273.635702 
L 413.760407 273.635702 
L 437.46474 273.635702 
L 446.946474 273.635702 
L 451.68734 273.635702 
L 461.169073 273.635702 
L 489.614273 273.635702 
L 503.836873 273.635702 
L 532.282073 273.635702 
L 546.504672 273.635702 
L 555.986406 273.635702 
L 560.727272 273.635702 
L 565.468139 273.635702 
L 574.949872 273.635702 
" clip-path="url(#p491fde1c62)" style="fill: none; stroke: #ffa500; stroke-width: 1.5; stroke-linecap: square"/>
   </g>
   <g id="line2d_34">
    <path d="M 337.906542 271.136529 
L 427.983007 271.136529 
L 442.205607 271.136529 
L 451.68734 271.136529 
L 475.391673 271.136529 
L 484.873406 271.136529 
L 489.614273 271.136529 
L 494.35514 271.136529 
L 499.096006 271.136529 
L 503.836873 271.136529 
L 518.059473 271.136529 
L 522.800339 271.136529 
L 527.541206 271.136529 
L 541.763806 271.136529 
L 551.245539 271.136529 
L 555.986406 271.136529 
L 560.727272 271.136529 
L 565.468139 271.136529 
L 570.209005 271.136529 
L 574.949872 271.136529 
" clip-path="url(#p491fde1c62)" style="fill: none; stroke: #ffa500; stroke-width: 1.5; stroke-linecap: square"/>
   </g>
   <g id="line2d_35">
    <path d="M 200.42141 268.637355 
L 205.162276 268.637355 
L 390.056074 268.637355 
L 399.537807 268.637355 
L 442.205607 268.637355 
L 461.169073 268.637355 
L 470.650807 268.637355 
L 480.13254 268.637355 
L 484.873406 268.637355 
L 489.614273 268.637355 
L 508.577739 268.637355 
L 527.541206 268.637355 
L 532.282073 268.637355 
L 537.022939 268.637355 
L 541.763806 268.637355 
L 546.504672 268.637355 
L 551.245539 268.637355 
L 555.986406 268.637355 
L 565.468139 268.637355 
L 570.209005 268.637355 
L 574.949872 268.637355 
" clip-path="url(#p491fde1c62)" style="fill: none; stroke: #ffa500; stroke-width: 1.5; stroke-linecap: square"/>
   </g>
   <g id="line2d_36">
    <path d="M 252.570943 266.138182 
L 309.461342 266.138182 
L 328.424808 266.138182 
L 333.165675 266.138182 
L 342.647408 266.138182 
L 366.351741 266.138182 
L 380.574341 266.138182 
L 394.796941 266.138182 
L 399.537807 266.138182 
L 409.019541 266.138182 
L 413.760407 266.138182 
L 418.501274 266.138182 
L 432.723874 266.138182 
L 437.46474 266.138182 
L 446.946474 266.138182 
L 470.650807 266.138182 
L 494.35514 266.138182 
L 499.096006 266.138182 
L 546.504672 266.138182 
L 551.245539 266.138182 
L 565.468139 266.138182 
L 570.209005 266.138182 
L 574.949872 266.138182 
" clip-path="url(#p491fde1c62)" style="fill: none; stroke: #ffa500; stroke-width: 1.5; stroke-linecap: square"/>
   </g>
   <g id="line2d_37">
    <path d="M 186.19881 263.639008 
L 190.939677 263.639008 
L 195.680543 263.639008 
L 200.42141 263.639008 
L 205.162276 263.639008 
L 209.903143 263.639008 
L 214.64401 263.639008 
L 238.348343 263.639008 
L 252.570943 263.639008 
L 314.202208 263.639008 
L 333.165675 263.639008 
L 380.574341 263.639008 
L 390.056074 263.639008 
L 399.537807 263.639008 
L 427.983007 263.639008 
L 489.614273 263.639008 
L 499.096006 263.639008 
L 508.577739 263.639008 
L 518.059473 263.639008 
" clip-path="url(#p491fde1c62)" style="fill: none; stroke: #ffa500; stroke-width: 1.5; stroke-linecap: square"/>
   </g>
   <g id="line2d_38">
    <path d="M 333.165675 261.139835 
L 352.129141 261.139835 
L 356.870008 261.139835 
L 361.610875 261.139835 
L 366.351741 261.139835 
L 380.574341 261.139835 
L 390.056074 261.139835 
L 394.796941 261.139835 
L 423.242141 261.139835 
L 427.983007 261.139835 
L 432.723874 261.139835 
L 456.428207 261.139835 
L 480.13254 261.139835 
L 527.541206 261.139835 
L 532.282073 261.139835 
L 537.022939 261.139835 
L 541.763806 261.139835 
L 555.986406 261.139835 
L 565.468139 261.139835 
L 570.209005 261.139835 
" clip-path="url(#p491fde1c62)" style="fill: none; stroke: #ffa500; stroke-width: 1.5; stroke-linecap: square"/>
   </g>
   <g id="line2d_39">
    <path d="M 418.501274 258.640661 
L 451.68734 258.640661 
L 484.873406 258.640661 
L 499.096006 258.640661 
L 503.836873 258.640661 
L 518.059473 258.640661 
L 527.541206 258.640661 
L 532.282073 258.640661 
L 537.022939 258.640661 
L 551.245539 258.640661 
L 560.727272 258.640661 
L 565.468139 258.640661 
L 570.209005 258.640661 
L 574.949872 258.640661 
" clip-path="url(#p491fde1c62)" style="fill: none; stroke: #ffa500; stroke-width: 1.5; stroke-linecap: square"/>
   </g>
   <g id="line2d_40">
    <path d="M 290.497875 256.141488 
L 323.683942 256.141488 
L 337.906542 256.141488 
L 352.129141 256.141488 
L 366.351741 256.141488 
L 394.796941 256.141488 
L 413.760407 256.141488 
L 446.946474 256.141488 
L 461.169073 256.141488 
L 465.90994 256.141488 
L 470.650807 256.141488 
L 475.391673 256.141488 
L 484.873406 256.141488 
L 494.35514 256.141488 
L 513.318606 256.141488 
L 560.727272 256.141488 
" clip-path="url(#p491fde1c62)" style="fill: none; stroke: #ffa500; stroke-width: 1.5; stroke-linecap: square"/>
   </g>
   <g id="line2d_41">
    <path d="M 318.943075 253.642314 
L 413.760407 253.642314 
L 418.501274 253.642314 
L 442.205607 253.642314 
L 446.946474 253.642314 
L 456.428207 253.642314 
L 461.169073 253.642314 
L 465.90994 253.642314 
L 480.13254 253.642314 
L 484.873406 253.642314 
L 494.35514 253.642314 
L 522.800339 253.642314 
L 555.986406 253.642314 
" clip-path="url(#p491fde1c62)" style="fill: none; stroke: #ffa500; stroke-width: 1.5; stroke-linecap: square"/>
   </g>
   <g id="line2d_42">
    <path d="M 361.610875 251.14314 
L 385.315208 251.14314 
L 409.019541 251.14314 
L 413.760407 251.14314 
L 437.46474 251.14314 
L 442.205607 251.14314 
L 446.946474 251.14314 
L 456.428207 251.14314 
L 461.169073 251.14314 
L 470.650807 251.14314 
L 494.35514 251.14314 
L 499.096006 251.14314 
L 503.836873 251.14314 
L 555.986406 251.14314 
" clip-path="url(#p491fde1c62)" style="fill: none; stroke: #ffa500; stroke-width: 1.5; stroke-linecap: square"/>
   </g>
   <g id="line2d_43">
    <path d="M 413.760407 248.643967 
L 423.242141 248.643967 
L 432.723874 248.643967 
L 442.205607 248.643967 
L 446.946474 248.643967 
L 451.68734 248.643967 
L 456.428207 248.643967 
L 461.169073 248.643967 
L 465.90994 248.643967 
L 489.614273 248.643967 
L 494.35514 248.643967 
L 508.577739 248.643967 
L 541.763806 248.643967 
L 565.468139 248.643967 
" clip-path="url(#p491fde1c62)" style="fill: none; stroke: #ffa500; stroke-width: 1.5; stroke-linecap: square"/>
   </g>
   <g id="line2d_44">
    <path d="M 271.534409 246.144793 
L 342.647408 246.144793 
L 366.351741 246.144793 
L 432.723874 246.144793 
L 442.205607 246.144793 
L 446.946474 246.144793 
L 451.68734 246.144793 
L 456.428207 246.144793 
L 461.169073 246.144793 
L 475.391673 246.144793 
L 503.836873 246.144793 
L 527.541206 246.144793 
L 537.022939 246.144793 
L 555.986406 246.144793 
L 565.468139 246.144793 
L 574.949872 246.144793 
" clip-path="url(#p491fde1c62)" style="fill: none; stroke: #ffa500; stroke-width: 1.5; stroke-linecap: square"/>
   </g>
   <g id="line2d_45">
    <path d="M 333.165675 243.64562 
L 352.129141 243.64562 
L 356.870008 243.64562 
L 375.833474 243.64562 
L 432.723874 243.64562 
L 442.205607 243.64562 
L 451.68734 243.64562 
L 494.35514 243.64562 
L 508.577739 243.64562 
L 527.541206 243.64562 
L 532.282073 243.64562 
L 546.504672 243.64562 
L 560.727272 243.64562 
L 570.209005 243.64562 
" clip-path="url(#p491fde1c62)" style="fill: none; stroke: #ffa500; stroke-width: 1.5; stroke-linecap: square"/>
   </g>
   <g id="line2d_46">
    <path d="M 314.202208 241.146446 
L 318.943075 241.146446 
L 323.683942 241.146446 
L 328.424808 241.146446 
L 352.129141 241.146446 
L 404.278674 241.146446 
L 432.723874 241.146446 
L 446.946474 241.146446 
L 461.169073 241.146446 
L 494.35514 241.146446 
L 522.800339 241.146446 
L 532.282073 241.146446 
L 570.209005 241.146446 
" clip-path="url(#p491fde1c62)" style="fill: none; stroke: #ffa500; stroke-width: 1.5; stroke-linecap: square"/>
   </g>
   <g id="line2d_47">
    <path d="M 318.943075 238.647273 
L 361.610875 238.647273 
L 394.796941 238.647273 
L 399.537807 238.647273 
L 409.019541 238.647273 
L 418.501274 238.647273 
L 423.242141 238.647273 
L 427.983007 238.647273 
L 432.723874 238.647273 
L 437.46474 238.647273 
L 451.68734 238.647273 
L 461.169073 238.647273 
L 470.650807 238.647273 
L 518.059473 238.647273 
L 537.022939 238.647273 
L 570.209005 238.647273 
" clip-path="url(#p491fde1c62)" style="fill: none; stroke: #ffa500; stroke-width: 1.5; stroke-linecap: square"/>
   </g>
   <g id="line2d_48">
    <path d="M 513.318606 236.148099 
L 532.282073 236.148099 
L 537.022939 236.148099 
L 541.763806 236.148099 
L 551.245539 236.148099 
L 560.727272 236.148099 
L 565.468139 236.148099 
L 570.209005 236.148099 
L 574.949872 236.148099 
" clip-path="url(#p491fde1c62)" style="fill: none; stroke: #ffa500; stroke-width: 1.5; stroke-linecap: square"/>
   </g>
   <g id="line2d_49">
    <path d="M 295.238742 233.648926 
L 475.391673 233.648926 
L 499.096006 233.648926 
L 508.577739 233.648926 
L 513.318606 233.648926 
L 541.763806 233.648926 
L 546.504672 233.648926 
L 551.245539 233.648926 
L 555.986406 233.648926 
L 574.949872 233.648926 
" clip-path="url(#p491fde1c62)" style="fill: none; stroke: #ffa500; stroke-width: 1.5; stroke-linecap: square"/>
   </g>
   <g id="line2d_50">
    <path d="M 314.202208 231.149752 
L 375.833474 231.149752 
L 385.315208 231.149752 
L 399.537807 231.149752 
L 404.278674 231.149752 
L 437.46474 231.149752 
L 480.13254 231.149752 
L 484.873406 231.149752 
L 513.318606 231.149752 
L 518.059473 231.149752 
L 560.727272 231.149752 
" clip-path="url(#p491fde1c62)" style="fill: none; stroke: #ffa500; stroke-width: 1.5; stroke-linecap: square"/>
   </g>
   <g id="line2d_51">
    <path d="M 233.607476 228.650579 
L 356.870008 228.650579 
L 366.351741 228.650579 
L 380.574341 228.650579 
L 385.315208 228.650579 
L 394.796941 228.650579 
L 451.68734 228.650579 
L 456.428207 228.650579 
L 480.13254 228.650579 
L 499.096006 228.650579 
L 537.022939 228.650579 
L 551.245539 228.650579 
L 570.209005 228.650579 
" clip-path="url(#p491fde1c62)" style="fill: none; stroke: #ffa500; stroke-width: 1.5; stroke-linecap: square"/>
   </g>
   <g id="line2d_52">
    <path d="M 347.388275 226.151405 
L 371.092608 226.151405 
L 375.833474 226.151405 
L 394.796941 226.151405 
L 399.537807 226.151405 
L 404.278674 226.151405 
L 413.760407 226.151405 
L 437.46474 226.151405 
L 451.68734 226.151405 
L 465.90994 226.151405 
L 518.059473 226.151405 
L 522.800339 226.151405 
" clip-path="url(#p491fde1c62)" style="fill: none; stroke: #ffa500; stroke-width: 1.5; stroke-linecap: square"/>
   </g>
   <g id="line2d_53">
    <path d="M 375.833474 223.652231 
L 399.537807 223.652231 
L 413.760407 223.652231 
L 423.242141 223.652231 
L 427.983007 223.652231 
L 432.723874 223.652231 
L 475.391673 223.652231 
L 518.059473 223.652231 
L 532.282073 223.652231 
L 565.468139 223.652231 
" clip-path="url(#p491fde1c62)" style="fill: none; stroke: #ffa500; stroke-width: 1.5; stroke-linecap: square"/>
   </g>
   <g id="line2d_54">
    <path d="M 333.165675 221.153058 
L 347.388275 221.153058 
L 361.610875 221.153058 
L 390.056074 221.153058 
L 394.796941 221.153058 
L 399.537807 221.153058 
L 409.019541 221.153058 
L 413.760407 221.153058 
L 456.428207 221.153058 
L 480.13254 221.153058 
L 560.727272 221.153058 
" clip-path="url(#p491fde1c62)" style="fill: none; stroke: #ffa500; stroke-width: 1.5; stroke-linecap: square"/>
   </g>
   <g id="line2d_55">
    <path d="M 390.056074 218.653884 
L 409.019541 218.653884 
L 442.205607 218.653884 
L 489.614273 218.653884 
L 499.096006 218.653884 
L 537.022939 218.653884 
L 546.504672 218.653884 
L 551.245539 218.653884 
L 555.986406 218.653884 
L 560.727272 218.653884 
L 574.949872 218.653884 
" clip-path="url(#p491fde1c62)" style="fill: none; stroke: #ffa500; stroke-width: 1.5; stroke-linecap: square"/>
   </g>
   <g id="line2d_56">
    <path d="M 394.796941 216.154711 
L 465.90994 216.154711 
L 508.577739 216.154711 
L 527.541206 216.154711 
L 532.282073 216.154711 
L 541.763806 216.154711 
L 546.504672 216.154711 
L 551.245539 216.154711 
L 555.986406 216.154711 
L 565.468139 216.154711 
L 570.209005 216.154711 
L 574.949872 216.154711 
" clip-path="url(#p491fde1c62)" style="fill: none; stroke: #ffa500; stroke-width: 1.5; stroke-linecap: square"/>
   </g>
   <g id="line2d_57">
    <path d="M 200.42141 213.655537 
L 238.348343 213.655537 
L 323.683942 213.655537 
L 361.610875 213.655537 
L 375.833474 213.655537 
L 385.315208 213.655537 
L 404.278674 213.655537 
L 432.723874 213.655537 
L 451.68734 213.655537 
L 484.873406 213.655537 
L 541.763806 213.655537 
" clip-path="url(#p491fde1c62)" style="fill: none; stroke: #ffa500; stroke-width: 1.5; stroke-linecap: square"/>
   </g>
   <g id="line2d_58">
    <path d="M 257.311809 211.156364 
L 262.052676 211.156364 
L 285.757009 211.156364 
L 290.497875 211.156364 
L 356.870008 211.156364 
L 385.315208 211.156364 
L 404.278674 211.156364 
L 446.946474 211.156364 
L 480.13254 211.156364 
L 527.541206 211.156364 
L 546.504672 211.156364 
L 560.727272 211.156364 
" clip-path="url(#p491fde1c62)" style="fill: none; stroke: #ffa500; stroke-width: 1.5; stroke-linecap: square"/>
   </g>
   <g id="line2d_59">
    <path d="M 446.946474 208.65719 
L 456.428207 208.65719 
L 465.90994 208.65719 
L 470.650807 208.65719 
L 475.391673 208.65719 
L 489.614273 208.65719 
L 527.541206 208.65719 
L 537.022939 208.65719 
L 546.504672 208.65719 
L 560.727272 208.65719 
L 574.949872 208.65719 
" clip-path="url(#p491fde1c62)" style="fill: none; stroke: #ffa500; stroke-width: 1.5; stroke-linecap: square"/>
   </g>
   <g id="line2d_60">
    <path d="M 299.979609 206.158017 
L 318.943075 206.158017 
L 427.983007 206.158017 
L 432.723874 206.158017 
L 456.428207 206.158017 
L 461.169073 206.158017 
L 475.391673 206.158017 
L 484.873406 206.158017 
L 518.059473 206.158017 
L 527.541206 206.158017 
L 537.022939 206.158017 
L 541.763806 206.158017 
L 565.468139 206.158017 
" clip-path="url(#p491fde1c62)" style="fill: none; stroke: #ffa500; stroke-width: 1.5; stroke-linecap: square"/>
   </g>
   <g id="line2d_61">
    <path d="M 333.165675 203.658843 
L 394.796941 203.658843 
L 399.537807 203.658843 
L 446.946474 203.658843 
L 475.391673 203.658843 
L 484.873406 203.658843 
L 527.541206 203.658843 
L 546.504672 203.658843 
L 555.986406 203.658843 
L 574.949872 203.658843 
" clip-path="url(#p491fde1c62)" style="fill: none; stroke: #ffa500; stroke-width: 1.5; stroke-linecap: square"/>
   </g>
   <g id="line2d_62">
    <path d="M 299.979609 201.159669 
L 309.461342 201.159669 
L 333.165675 201.159669 
L 366.351741 201.159669 
L 413.760407 201.159669 
L 423.242141 201.159669 
L 456.428207 201.159669 
L 489.614273 201.159669 
L 494.35514 201.159669 
L 499.096006 201.159669 
L 560.727272 201.159669 
L 574.949872 201.159669 
" clip-path="url(#p491fde1c62)" style="fill: none; stroke: #ffa500; stroke-width: 1.5; stroke-linecap: square"/>
   </g>
   <g id="line2d_63">
    <path d="M 361.610875 198.660496 
L 371.092608 198.660496 
L 385.315208 198.660496 
L 413.760407 198.660496 
L 423.242141 198.660496 
L 442.205607 198.660496 
L 489.614273 198.660496 
L 522.800339 198.660496 
L 527.541206 198.660496 
L 541.763806 198.660496 
L 546.504672 198.660496 
" clip-path="url(#p491fde1c62)" style="fill: none; stroke: #ffa500; stroke-width: 1.5; stroke-linecap: square"/>
   </g>
   <g id="line2d_64">
    <path d="M 295.238742 196.161322 
L 309.461342 196.161322 
L 314.202208 196.161322 
L 328.424808 196.161322 
L 347.388275 196.161322 
L 371.092608 196.161322 
L 375.833474 196.161322 
L 385.315208 196.161322 
L 394.796941 196.161322 
L 399.537807 196.161322 
L 418.501274 196.161322 
" clip-path="url(#p491fde1c62)" style="fill: none; stroke: #ffa500; stroke-width: 1.5; stroke-linecap: square"/>
   </g>
   <g id="line2d_65">
    <path d="M 418.501274 193.662149 
L 461.169073 193.662149 
L 475.391673 193.662149 
L 484.873406 193.662149 
L 489.614273 193.662149 
L 494.35514 193.662149 
L 499.096006 193.662149 
L 522.800339 193.662149 
L 546.504672 193.662149 
L 551.245539 193.662149 
L 560.727272 193.662149 
" clip-path="url(#p491fde1c62)" style="fill: none; stroke: #ffa500; stroke-width: 1.5; stroke-linecap: square"/>
   </g>
   <g id="line2d_66">
    <path d="M 352.129141 191.162975 
L 361.610875 191.162975 
L 418.501274 191.162975 
L 427.983007 191.162975 
L 451.68734 191.162975 
L 484.873406 191.162975 
L 503.836873 191.162975 
L 518.059473 191.162975 
L 551.245539 191.162975 
L 574.949872 191.162975 
L 579.690739 191.162975 
" clip-path="url(#p491fde1c62)" style="fill: none; stroke: #ffa500; stroke-width: 1.5; stroke-linecap: square"/>
   </g>
   <g id="line2d_67">
    <path d="M 399.537807 188.663802 
L 404.278674 188.663802 
L 437.46474 188.663802 
L 451.68734 188.663802 
L 456.428207 188.663802 
L 461.169073 188.663802 
L 489.614273 188.663802 
L 527.541206 188.663802 
" clip-path="url(#p491fde1c62)" style="fill: none; stroke: #ffa500; stroke-width: 1.5; stroke-linecap: square"/>
   </g>
   <g id="line2d_68">
    <path d="M 309.461342 186.164628 
L 328.424808 186.164628 
L 394.796941 186.164628 
L 427.983007 186.164628 
L 446.946474 186.164628 
L 451.68734 186.164628 
L 465.90994 186.164628 
L 480.13254 186.164628 
" clip-path="url(#p491fde1c62)" style="fill: none; stroke: #ffa500; stroke-width: 1.5; stroke-linecap: square"/>
   </g>
   <g id="line2d_69">
    <path d="M 176.717077 183.665455 
L 195.680543 183.665455 
L 200.42141 183.665455 
L 205.162276 183.665455 
L 209.903143 183.665455 
L 224.125743 183.665455 
L 323.683942 183.665455 
L 418.501274 183.665455 
L 432.723874 183.665455 
" clip-path="url(#p491fde1c62)" style="fill: none; stroke: #ffa500; stroke-width: 1.5; stroke-linecap: square"/>
   </g>
   <g id="line2d_70">
    <path d="M 200.42141 181.166281 
L 214.64401 181.166281 
L 285.757009 181.166281 
L 290.497875 181.166281 
L 309.461342 181.166281 
L 314.202208 181.166281 
L 333.165675 181.166281 
L 337.906542 181.166281 
L 390.056074 181.166281 
L 404.278674 181.166281 
L 513.318606 181.166281 
" clip-path="url(#p491fde1c62)" style="fill: none; stroke: #ffa500; stroke-width: 1.5; stroke-linecap: square"/>
   </g>
   <g id="line2d_71">
    <path d="M 290.497875 178.667107 
L 318.943075 178.667107 
L 323.683942 178.667107 
L 328.424808 178.667107 
L 356.870008 178.667107 
L 404.278674 178.667107 
L 456.428207 178.667107 
L 489.614273 178.667107 
L 499.096006 178.667107 
" clip-path="url(#p491fde1c62)" style="fill: none; stroke: #ffa500; stroke-width: 1.5; stroke-linecap: square"/>
   </g>
   <g id="line2d_72">
    <path d="M 352.129141 176.167934 
L 366.351741 176.167934 
L 404.278674 176.167934 
L 423.242141 176.167934 
L 437.46474 176.167934 
L 442.205607 176.167934 
L 470.650807 176.167934 
L 475.391673 176.167934 
L 499.096006 176.167934 
L 503.836873 176.167934 
L 560.727272 176.167934 
" clip-path="url(#p491fde1c62)" style="fill: none; stroke: #ffa500; stroke-width: 1.5; stroke-linecap: square"/>
   </g>
   <g id="line2d_73">
    <path d="M 233.607476 173.66876 
L 276.275276 173.66876 
L 285.757009 173.66876 
L 290.497875 173.66876 
L 356.870008 173.66876 
L 361.610875 173.66876 
L 366.351741 173.66876 
L 399.537807 173.66876 
L 413.760407 173.66876 
L 442.205607 173.66876 
L 499.096006 173.66876 
L 541.763806 173.66876 
" clip-path="url(#p491fde1c62)" style="fill: none; stroke: #ffa500; stroke-width: 1.5; stroke-linecap: square"/>
   </g>
   <g id="line2d_74">
    <path d="M 290.497875 171.169587 
L 394.796941 171.169587 
L 437.46474 171.169587 
L 442.205607 171.169587 
L 446.946474 171.169587 
L 470.650807 171.169587 
L 489.614273 171.169587 
L 537.022939 171.169587 
L 546.504672 171.169587 
L 574.949872 171.169587 
" clip-path="url(#p491fde1c62)" style="fill: none; stroke: #ffa500; stroke-width: 1.5; stroke-linecap: square"/>
   </g>
   <g id="line2d_75">
    <path d="M 290.497875 168.670413 
L 404.278674 168.670413 
L 418.501274 168.670413 
L 423.242141 168.670413 
L 432.723874 168.670413 
L 475.391673 168.670413 
L 570.209005 168.670413 
L 574.949872 168.670413 
" clip-path="url(#p491fde1c62)" style="fill: none; stroke: #ffa500; stroke-width: 1.5; stroke-linecap: square"/>
   </g>
   <g id="line2d_76">
    <path d="M 176.717077 166.17124 
L 209.903143 166.17124 
L 233.607476 166.17124 
L 257.311809 166.17124 
L 295.238742 166.17124 
L 299.979609 166.17124 
L 304.720475 166.17124 
L 390.056074 166.17124 
L 499.096006 166.17124 
L 560.727272 166.17124 
" clip-path="url(#p491fde1c62)" style="fill: none; stroke: #ffa500; stroke-width: 1.5; stroke-linecap: square"/>
   </g>
   <g id="line2d_77">
    <path d="M 290.497875 163.672066 
L 314.202208 163.672066 
L 318.943075 163.672066 
L 337.906542 163.672066 
L 347.388275 163.672066 
L 361.610875 163.672066 
L 399.537807 163.672066 
L 427.983007 163.672066 
L 470.650807 163.672066 
L 489.614273 163.672066 
L 494.35514 163.672066 
" clip-path="url(#p491fde1c62)" style="fill: none; stroke: #ffa500; stroke-width: 1.5; stroke-linecap: square"/>
   </g>
   <g id="line2d_78">
    <path d="M 470.650807 161.172893 
L 508.577739 161.172893 
L 513.318606 161.172893 
L 518.059473 161.172893 
L 570.209005 161.172893 
L 574.949872 161.172893 
" clip-path="url(#p491fde1c62)" style="fill: none; stroke: #ffa500; stroke-width: 1.5; stroke-linecap: square"/>
   </g>
   <g id="line2d_79">
    <path d="M 390.056074 158.673719 
L 418.501274 158.673719 
L 423.242141 158.673719 
L 437.46474 158.673719 
L 442.205607 158.673719 
L 475.391673 158.673719 
" clip-path="url(#p491fde1c62)" style="fill: none; stroke: #ffa500; stroke-width: 1.5; stroke-linecap: square"/>
   </g>
   <g id="line2d_80">
    <path d="M 323.683942 156.174545 
L 385.315208 156.174545 
L 390.056074 156.174545 
L 394.796941 156.174545 
L 423.242141 156.174545 
L 432.723874 156.174545 
L 480.13254 156.174545 
L 499.096006 156.174545 
L 527.541206 156.174545 
" clip-path="url(#p491fde1c62)" style="fill: none; stroke: #ffa500; stroke-width: 1.5; stroke-linecap: square"/>
   </g>
   <g id="line2d_81">
    <path d="M 432.723874 153.675372 
L 442.205607 153.675372 
L 475.391673 153.675372 
L 494.35514 153.675372 
L 499.096006 153.675372 
L 503.836873 153.675372 
L 518.059473 153.675372 
L 555.986406 153.675372 
" clip-path="url(#p491fde1c62)" style="fill: none; stroke: #ffa500; stroke-width: 1.5; stroke-linecap: square"/>
   </g>
   <g id="line2d_82">
    <path d="M 238.348343 151.176198 
L 437.46474 151.176198 
L 470.650807 151.176198 
L 508.577739 151.176198 
L 513.318606 151.176198 
L 518.059473 151.176198 
L 522.800339 151.176198 
L 532.282073 151.176198 
L 537.022939 151.176198 
L 574.949872 151.176198 
" clip-path="url(#p491fde1c62)" style="fill: none; stroke: #ffa500; stroke-width: 1.5; stroke-linecap: square"/>
   </g>
   <g id="line2d_83">
    <path d="M 356.870008 148.677025 
L 432.723874 148.677025 
L 503.836873 148.677025 
L 508.577739 148.677025 
L 518.059473 148.677025 
L 522.800339 148.677025 
L 532.282073 148.677025 
L 537.022939 148.677025 
" clip-path="url(#p491fde1c62)" style="fill: none; stroke: #ffa500; stroke-width: 1.5; stroke-linecap: square"/>
   </g>
   <g id="line2d_84">
    <path d="M 470.650807 146.177851 
L 480.13254 146.177851 
L 489.614273 146.177851 
L 499.096006 146.177851 
L 503.836873 146.177851 
L 513.318606 146.177851 
L 537.022939 146.177851 
" clip-path="url(#p491fde1c62)" style="fill: none; stroke: #ffa500; stroke-width: 1.5; stroke-linecap: square"/>
   </g>
   <g id="line2d_85">
    <path d="M 371.092608 143.678678 
L 375.833474 143.678678 
L 513.318606 143.678678 
L 518.059473 143.678678 
L 546.504672 143.678678 
L 555.986406 143.678678 
L 570.209005 143.678678 
L 574.949872 143.678678 
L 579.690739 143.678678 
" clip-path="url(#p491fde1c62)" style="fill: none; stroke: #ffa500; stroke-width: 1.5; stroke-linecap: square"/>
   </g>
   <g id="line2d_86">
    <path d="M 470.650807 141.179504 
L 555.986406 141.179504 
L 560.727272 141.179504 
L 565.468139 141.179504 
L 570.209005 141.179504 
" clip-path="url(#p491fde1c62)" style="fill: none; stroke: #ffa500; stroke-width: 1.5; stroke-linecap: square"/>
   </g>
   <g id="line2d_87">
    <path d="M 299.979609 138.680331 
L 318.943075 138.680331 
L 375.833474 138.680331 
L 442.205607 138.680331 
L 489.614273 138.680331 
L 532.282073 138.680331 
L 541.763806 138.680331 
L 551.245539 138.680331 
L 574.949872 138.680331 
" clip-path="url(#p491fde1c62)" style="fill: none; stroke: #ffa500; stroke-width: 1.5; stroke-linecap: square"/>
   </g>
   <g id="line2d_88">
    <path d="M 451.68734 136.181157 
L 489.614273 136.181157 
L 494.35514 136.181157 
L 499.096006 136.181157 
L 518.059473 136.181157 
L 541.763806 136.181157 
L 546.504672 136.181157 
L 574.949872 136.181157 
" clip-path="url(#p491fde1c62)" style="fill: none; stroke: #ffa500; stroke-width: 1.5; stroke-linecap: square"/>
   </g>
   <g id="line2d_89">
    <path d="M 418.501274 133.681983 
L 456.428207 133.681983 
L 480.13254 133.681983 
L 484.873406 133.681983 
L 494.35514 133.681983 
L 551.245539 133.681983 
L 574.949872 133.681983 
" clip-path="url(#p491fde1c62)" style="fill: none; stroke: #ffa500; stroke-width: 1.5; stroke-linecap: square"/>
   </g>
   <g id="line2d_90">
    <path d="M 333.165675 131.18281 
L 337.906542 131.18281 
L 409.019541 131.18281 
L 513.318606 131.18281 
L 532.282073 131.18281 
L 541.763806 131.18281 
L 574.949872 131.18281 
" clip-path="url(#p491fde1c62)" style="fill: none; stroke: #ffa500; stroke-width: 1.5; stroke-linecap: square"/>
   </g>
   <g id="line2d_91">
    <path d="M 333.165675 128.683636 
L 461.169073 128.683636 
L 465.90994 128.683636 
L 494.35514 128.683636 
L 508.577739 128.683636 
L 527.541206 128.683636 
L 546.504672 128.683636 
L 555.986406 128.683636 
L 565.468139 128.683636 
" clip-path="url(#p491fde1c62)" style="fill: none; stroke: #ffa500; stroke-width: 1.5; stroke-linecap: square"/>
   </g>
   <g id="line2d_92">
    <path d="M 314.202208 126.184463 
L 432.723874 126.184463 
L 437.46474 126.184463 
L 451.68734 126.184463 
L 484.873406 126.184463 
L 513.318606 126.184463 
L 518.059473 126.184463 
L 574.949872 126.184463 
" clip-path="url(#p491fde1c62)" style="fill: none; stroke: #ffa500; stroke-width: 1.5; stroke-linecap: square"/>
   </g>
   <g id="line2d_93">
    <path d="M 252.570943 123.685289 
L 437.46474 123.685289 
L 442.205607 123.685289 
L 446.946474 123.685289 
L 470.650807 123.685289 
L 503.836873 123.685289 
L 513.318606 123.685289 
L 565.468139 123.685289 
" clip-path="url(#p491fde1c62)" style="fill: none; stroke: #ffa500; stroke-width: 1.5; stroke-linecap: square"/>
   </g>
   <g id="line2d_94">
    <path d="M 527.541206 121.186116 
L 541.763806 121.186116 
L 546.504672 121.186116 
L 551.245539 121.186116 
L 555.986406 121.186116 
L 560.727272 121.186116 
L 570.209005 121.186116 
" clip-path="url(#p491fde1c62)" style="fill: none; stroke: #ffa500; stroke-width: 1.5; stroke-linecap: square"/>
   </g>
   <g id="line2d_95">
    <path d="M 318.943075 118.686942 
L 380.574341 118.686942 
L 385.315208 118.686942 
L 390.056074 118.686942 
L 413.760407 118.686942 
L 456.428207 118.686942 
L 465.90994 118.686942 
L 565.468139 118.686942 
" clip-path="url(#p491fde1c62)" style="fill: none; stroke: #ffa500; stroke-width: 1.5; stroke-linecap: square"/>
   </g>
   <g id="line2d_96">
    <path d="M 299.979609 116.187769 
L 465.90994 116.187769 
L 508.577739 116.187769 
L 518.059473 116.187769 
L 527.541206 116.187769 
L 532.282073 116.187769 
L 537.022939 116.187769 
" clip-path="url(#p491fde1c62)" style="fill: none; stroke: #ffa500; stroke-width: 1.5; stroke-linecap: square"/>
   </g>
   <g id="line2d_97">
    <path d="M 299.979609 113.688595 
L 318.943075 113.688595 
L 427.983007 113.688595 
L 446.946474 113.688595 
L 456.428207 113.688595 
L 499.096006 113.688595 
L 503.836873 113.688595 
L 513.318606 113.688595 
L 574.949872 113.688595 
" clip-path="url(#p491fde1c62)" style="fill: none; stroke: #ffa500; stroke-width: 1.5; stroke-linecap: square"/>
   </g>
   <g id="line2d_98">
    <path d="M 200.42141 111.189421 
L 266.793542 111.189421 
L 356.870008 111.189421 
L 404.278674 111.189421 
L 475.391673 111.189421 
L 518.059473 111.189421 
L 522.800339 111.189421 
L 541.763806 111.189421 
L 551.245539 111.189421 
" clip-path="url(#p491fde1c62)" style="fill: none; stroke: #ffa500; stroke-width: 1.5; stroke-linecap: square"/>
   </g>
   <g id="line2d_99">
    <path d="M 366.351741 108.690248 
L 371.092608 108.690248 
L 437.46474 108.690248 
L 499.096006 108.690248 
L 546.504672 108.690248 
L 555.986406 108.690248 
L 565.468139 108.690248 
L 570.209005 108.690248 
L 574.949872 108.690248 
" clip-path="url(#p491fde1c62)" style="fill: none; stroke: #ffa500; stroke-width: 1.5; stroke-linecap: square"/>
   </g>
   <g id="line2d_100">
    <path d="M 285.757009 106.191074 
L 323.683942 106.191074 
L 328.424808 106.191074 
L 356.870008 106.191074 
L 371.092608 106.191074 
L 508.577739 106.191074 
L 518.059473 106.191074 
" clip-path="url(#p491fde1c62)" style="fill: none; stroke: #ffa500; stroke-width: 1.5; stroke-linecap: square"/>
   </g>
   <g id="line2d_101">
    <path d="M 295.238742 103.691901 
L 309.461342 103.691901 
L 333.165675 103.691901 
L 352.129141 103.691901 
L 375.833474 103.691901 
L 399.537807 103.691901 
L 461.169073 103.691901 
L 465.90994 103.691901 
" clip-path="url(#p491fde1c62)" style="fill: none; stroke: #ffa500; stroke-width: 1.5; stroke-linecap: square"/>
   </g>
   <g id="line2d_102">
    <path d="M 437.46474 101.192727 
L 470.650807 101.192727 
L 494.35514 101.192727 
L 518.059473 101.192727 
L 522.800339 101.192727 
L 527.541206 101.192727 
L 565.468139 101.192727 
L 574.949872 101.192727 
" clip-path="url(#p491fde1c62)" style="fill: none; stroke: #ffa500; stroke-width: 1.5; stroke-linecap: square"/>
   </g>
   <g id="line2d_103">
    <path d="M 299.979609 98.693554 
L 318.943075 98.693554 
L 366.351741 98.693554 
L 465.90994 98.693554 
L 527.541206 98.693554 
L 560.727272 98.693554 
L 570.209005 98.693554 
" clip-path="url(#p491fde1c62)" style="fill: none; stroke: #ffa500; stroke-width: 1.5; stroke-linecap: square"/>
   </g>
   <g id="line2d_104">
    <path d="M 437.46474 96.19438 
L 494.35514 96.19438 
L 513.318606 96.19438 
L 522.800339 96.19438 
L 532.282073 96.19438 
L 551.245539 96.19438 
L 570.209005 96.19438 
L 574.949872 96.19438 
" clip-path="url(#p491fde1c62)" style="fill: none; stroke: #ffa500; stroke-width: 1.5; stroke-linecap: square"/>
   </g>
   <g id="line2d_105">
    <path d="M 385.315208 93.695207 
L 409.019541 93.695207 
L 546.504672 93.695207 
L 551.245539 93.695207 
L 555.986406 93.695207 
L 570.209005 93.695207 
" clip-path="url(#p491fde1c62)" style="fill: none; stroke: #ffa500; stroke-width: 1.5; stroke-linecap: square"/>
   </g>
   <g id="line2d_106">
    <path d="M 465.90994 91.196033 
L 508.577739 91.196033 
L 513.318606 91.196033 
L 518.059473 91.196033 
L 527.541206 91.196033 
L 537.022939 91.196033 
L 546.504672 91.196033 
L 570.209005 91.196033 
" clip-path="url(#p491fde1c62)" style="fill: none; stroke: #ffa500; stroke-width: 1.5; stroke-linecap: square"/>
   </g>
   <g id="line2d_107">
    <path d="M 399.537807 88.69686 
L 409.019541 88.69686 
L 446.946474 88.69686 
L 475.391673 88.69686 
L 499.096006 88.69686 
L 503.836873 88.69686 
L 508.577739 88.69686 
L 522.800339 88.69686 
" clip-path="url(#p491fde1c62)" style="fill: none; stroke: #ffa500; stroke-width: 1.5; stroke-linecap: square"/>
   </g>
   <g id="line2d_108">
    <path d="M 427.983007 86.197686 
L 461.169073 86.197686 
L 494.35514 86.197686 
L 503.836873 86.197686 
L 508.577739 86.197686 
L 551.245539 86.197686 
L 565.468139 86.197686 
L 574.949872 86.197686 
" clip-path="url(#p491fde1c62)" style="fill: none; stroke: #ffa500; stroke-width: 1.5; stroke-linecap: square"/>
   </g>
   <g id="line2d_109">
    <path d="M 233.607476 83.698512 
L 399.537807 83.698512 
L 465.90994 83.698512 
L 470.650807 83.698512 
L 494.35514 83.698512 
L 503.836873 83.698512 
L 532.282073 83.698512 
L 541.763806 83.698512 
" clip-path="url(#p491fde1c62)" style="fill: none; stroke: #ffa500; stroke-width: 1.5; stroke-linecap: square"/>
   </g>
   <g id="line2d_110">
    <path d="M 423.242141 81.199339 
L 465.90994 81.199339 
L 494.35514 81.199339 
L 522.800339 81.199339 
L 555.986406 81.199339 
L 570.209005 81.199339 
L 574.949872 81.199339 
" clip-path="url(#p491fde1c62)" style="fill: none; stroke: #ffa500; stroke-width: 1.5; stroke-linecap: square"/>
   </g>
   <g id="line2d_111">
    <path d="M 371.092608 78.700165 
L 432.723874 78.700165 
L 442.205607 78.700165 
L 470.650807 78.700165 
L 508.577739 78.700165 
L 565.468139 78.700165 
L 574.949872 78.700165 
" clip-path="url(#p491fde1c62)" style="fill: none; stroke: #ffa500; stroke-width: 1.5; stroke-linecap: square"/>
   </g>
   <g id="line2d_112">
    <path d="M 247.830076 76.200992 
L 257.311809 76.200992 
L 262.052676 76.200992 
L 380.574341 76.200992 
L 423.242141 76.200992 
L 446.946474 76.200992 
L 465.90994 76.200992 
" clip-path="url(#p491fde1c62)" style="fill: none; stroke: #ffa500; stroke-width: 1.5; stroke-linecap: square"/>
   </g>
   <g id="line2d_113">
    <path d="M 380.574341 73.701818 
L 423.242141 73.701818 
L 489.614273 73.701818 
L 503.836873 73.701818 
L 527.541206 73.701818 
L 546.504672 73.701818 
L 574.949872 73.701818 
" clip-path="url(#p491fde1c62)" style="fill: none; stroke: #ffa500; stroke-width: 1.5; stroke-linecap: square"/>
   </g>
   <g id="line2d_114">
    <path d="M 423.242141 71.202645 
L 442.205607 71.202645 
L 513.318606 71.202645 
L 537.022939 71.202645 
L 546.504672 71.202645 
L 574.949872 71.202645 
" clip-path="url(#p491fde1c62)" style="fill: none; stroke: #ffa500; stroke-width: 1.5; stroke-linecap: square"/>
   </g>
   <g id="line2d_115">
    <path d="M 243.089209 68.703471 
L 247.830076 68.703471 
L 252.570943 68.703471 
L 413.760407 68.703471 
L 432.723874 68.703471 
L 574.949872 68.703471 
" clip-path="url(#p491fde1c62)" style="fill: none; stroke: #ffa500; stroke-width: 1.5; stroke-linecap: square"/>
   </g>
   <g id="line2d_116">
    <path d="M 423.242141 66.204298 
L 489.614273 66.204298 
L 494.35514 66.204298 
L 499.096006 66.204298 
L 551.245539 66.204298 
L 555.986406 66.204298 
" clip-path="url(#p491fde1c62)" style="fill: none; stroke: #ffa500; stroke-width: 1.5; stroke-linecap: square"/>
   </g>
   <g id="line2d_117">
    <path d="M 518.059473 63.705124 
L 527.541206 63.705124 
L 541.763806 63.705124 
L 546.504672 63.705124 
L 551.245539 63.705124 
L 555.986406 63.705124 
L 579.690739 63.705124 
" clip-path="url(#p491fde1c62)" style="fill: none; stroke: #ffa500; stroke-width: 1.5; stroke-linecap: square"/>
   </g>
   <g id="line2d_118">
    <path d="M 205.162276 61.20595 
L 209.903143 61.20595 
L 337.906542 61.20595 
L 342.647408 61.20595 
L 394.796941 61.20595 
L 489.614273 61.20595 
L 574.949872 61.20595 
" clip-path="url(#p491fde1c62)" style="fill: none; stroke: #ffa500; stroke-width: 1.5; stroke-linecap: square"/>
   </g>
   <g id="line2d_119">
    <path d="M 399.537807 58.706777 
L 427.983007 58.706777 
L 465.90994 58.706777 
L 475.391673 58.706777 
L 555.986406 58.706777 
L 560.727272 58.706777 
" clip-path="url(#p491fde1c62)" style="fill: none; stroke: #ffa500; stroke-width: 1.5; stroke-linecap: square"/>
   </g>
   <g id="line2d_120">
    <path d="M 304.720475 56.207603 
L 352.129141 56.207603 
L 418.501274 56.207603 
L 518.059473 56.207603 
L 527.541206 56.207603 
L 555.986406 56.207603 
" clip-path="url(#p491fde1c62)" style="fill: none; stroke: #ffa500; stroke-width: 1.5; stroke-linecap: square"/>
   </g>
   <g id="line2d_121">
    <path d="M 494.35514 53.70843 
L 503.836873 53.70843 
L 513.318606 53.70843 
L 532.282073 53.70843 
L 537.022939 53.70843 
L 541.763806 53.70843 
L 551.245539 53.70843 
" clip-path="url(#p491fde1c62)" style="fill: none; stroke: #ffa500; stroke-width: 1.5; stroke-linecap: square"/>
   </g>
   <g id="line2d_122">
    <path d="M 551.245539 51.209256 
L 555.986406 51.209256 
L 560.727272 51.209256 
L 570.209005 51.209256 
L 574.949872 51.209256 
" clip-path="url(#p491fde1c62)" style="fill: none; stroke: #ffa500; stroke-width: 1.5; stroke-linecap: square"/>
   </g>
   <g id="line2d_123">
    <path d="M 181.457943 48.710083 
L 238.348343 48.710083 
L 281.016142 48.710083 
L 295.238742 48.710083 
L 385.315208 48.710083 
L 555.986406 48.710083 
" clip-path="url(#p491fde1c62)" style="fill: none; stroke: #ffa500; stroke-width: 1.5; stroke-linecap: square"/>
   </g>
   <g id="line2d_124">
    <path d="M 418.501274 46.210909 
L 465.90994 46.210909 
L 527.541206 46.210909 
" clip-path="url(#p491fde1c62)" style="fill: none; stroke: #ffa500; stroke-width: 1.5; stroke-linecap: square"/>
   </g>
   <g id="line2d_125">
    <path d="M 299.979609 43.711736 
L 314.202208 43.711736 
L 318.943075 43.711736 
L 337.906542 43.711736 
L 409.019541 43.711736 
L 574.949872 43.711736 
" clip-path="url(#p491fde1c62)" style="fill: none; stroke: #ffa500; stroke-width: 1.5; stroke-linecap: square"/>
   </g>
   <g id="line2d_126">
    <path d="M 427.983007 41.212562 
L 465.90994 41.212562 
L 532.282073 41.212562 
L 537.022939 41.212562 
L 546.504672 41.212562 
L 574.949872 41.212562 
" clip-path="url(#p491fde1c62)" style="fill: none; stroke: #ffa500; stroke-width: 1.5; stroke-linecap: square"/>
   </g>
   <g id="line2d_127">
    <path d="M 314.202208 38.713388 
L 323.683942 38.713388 
L 409.019541 38.713388 
L 470.650807 38.713388 
L 527.541206 38.713388 
" clip-path="url(#p491fde1c62)" style="fill: none; stroke: #ffa500; stroke-width: 1.5; stroke-linecap: square"/>
   </g>
   <g id="line2d_128">
    <path d="M 432.723874 36.214215 
L 503.836873 36.214215 
L 518.059473 36.214215 
L 522.800339 36.214215 
L 546.504672 36.214215 
L 574.949872 36.214215 
" clip-path="url(#p491fde1c62)" style="fill: none; stroke: #ffa500; stroke-width: 1.5; stroke-linecap: square"/>
   </g>
   <g id="line2d_129">
    <path d="M 480.13254 33.715041 
L 508.577739 33.715041 
L 537.022939 33.715041 
L 551.245539 33.715041 
L 565.468139 33.715041 
" clip-path="url(#p491fde1c62)" style="fill: none; stroke: #ffa500; stroke-width: 1.5; stroke-linecap: square"/>
   </g>
   <g id="line2d_130">
    <path d="M 380.574341 31.215868 
L 456.428207 31.215868 
L 470.650807 31.215868 
L 513.318606 31.215868 
L 518.059473 31.215868 
L 551.245539 31.215868 
" clip-path="url(#p491fde1c62)" style="fill: none; stroke: #ffa500; stroke-width: 1.5; stroke-linecap: square"/>
   </g>
   <g id="line2d_131">
    <path d="M 475.391673 28.716694 
L 489.614273 28.716694 
L 508.577739 28.716694 
L 541.763806 28.716694 
L 546.504672 28.716694 
L 560.727272 28.716694 
" clip-path="url(#p491fde1c62)" style="fill: none; stroke: #ffa500; stroke-width: 1.5; stroke-linecap: square"/>
   </g>
   <g id="line2d_132">
    <path d="M 361.610875 26.217521 
L 390.056074 26.217521 
L 499.096006 26.217521 
L 522.800339 26.217521 
" clip-path="url(#p491fde1c62)" style="fill: none; stroke: #ffa500; stroke-width: 1.5; stroke-linecap: square"/>
   </g>
   <g id="line2d_133">
    <path d="M 285.757009 23.718347 
L 522.800339 23.718347 
L 532.282073 23.718347 
L 555.986406 23.718347 
L 574.949872 23.718347 
" clip-path="url(#p491fde1c62)" style="fill: none; stroke: #ffa500; stroke-width: 1.5; stroke-linecap: square"/>
   </g>
   <g id="line2d_134">
    <path d="M 404.278674 21.219174 
L 409.019541 21.219174 
L 418.501274 21.219174 
L 423.242141 21.219174 
" clip-path="url(#p491fde1c62)" style="fill: none; stroke: #ffa500; stroke-width: 1.5; stroke-linecap: square"/>
   </g>
   <g id="line2d_135">
    <path d="M 494.35514 18.72 
L 560.727272 18.72 
" clip-path="url(#p491fde1c62)" style="fill: none; stroke: #ffa500; stroke-width: 1.5; stroke-linecap: square"/>
   </g>
   <g id="patch_3">
    <path d="M 47.054375 336.24 
L 47.054375 3.6 
" style="fill: none; stroke: #3a4f43; stroke-width: 0.8; stroke-linejoin: miter; stroke-linecap: square"/>
   </g>
   <g id="patch_4">
    <path d="M 605.054375 336.24 
L 605.054375 3.6 
" style="fill: none; stroke: #3a4f43; stroke-width: 0.8; stroke-linejoin: miter; stroke-linecap: square"/>
   </g>
   <g id="patch_5">
    <path d="M 47.054375 336.24 
L 605.054375 336.24 
" style="fill: none; stroke: #3a4f43; stroke-width: 0.8; stroke-linejoin: miter; stroke-linecap: square"/>
   </g>
   <g id="patch_6">
    <path d="M 47.054375 3.6 
L 605.054375 3.6 
" style="fill: none; stroke: #3a4f43; stroke-width: 0.8; stroke-linejoin: miter; stroke-linecap: square"/>
   </g>
  </g>
 </g>
 <defs>
  <clipPath id="p491fde1c62">
   <rect x="47.054375" y="3.6" width="558" height="332.64"/>
  </clipPath>
 </defs>
</svg>
